<svg xmlns="http://www.w3.org/2000/svg" viewBox="0 0 400 400" height="400" width="400"><g fill="#ffffff"><path d="M175.28 108.46a4.96 4.96 0 0 0 3.72 -3.12c2.46 -6.78 -10.88 -9.6 -10.58 -2a5.5 5.5 0 0 0 6.86 5.12zm26.46 -5.76c-3 -2.88 -9.26 -1.7 -9.16 2.86a5.44 5.44 0 0 0 4.56 5.52c3.98 0.56 7.7 -5.42 4.6 -8.38zm20.26 -1.44a4.6 4.6 0 1 0 -2.76 7.62c4.34 -0.22 5.5 -4.44 2.76 -7.62zm-15.06 31.32a5.22 5.22 0 0 0 -3.88 -0.56 46.94 46.94 0 0 0 -14.2 5.36c-0.26 0.16 0.3 0.62 0.46 0.56 2.96 -0.96 5.1 1.8 5.78 4.34a12.36 12.36 0 0 1 -1.1 8.44 13.5 13.5 0 0 0 -1.54 7.04 8.46 8.46 0 0 0 2.98 5.52c2.18 1.74 7.8 2 7.86 2a73.02 73.02 0 0 0 13.54 -12c0.2 -0.26 -0.36 -0.52 -0.42 -0.52 -3.86 0.2 -7.72 -3.08 -8 -8.64 -0.02 -3.72 2.18 -8.98 -1.48 -11.54zM209.4 150a7.28 7.28 0 0 0 6.6 3.52c-2 2.96 -11.6 10.48 -12.78 11.34 0 0 -5.4 -0.66 -7.46 -2.34a8 8 0 0 1 -2.6 -6.38c0.28 -4.82 5.02 -8.54 2.1 -15.24a5.36 5.36 0 0 0 -5.42 -3.56 60.14 60.14 0 0 1 12.46 -4.6 5.04 5.04 0 0 1 4.6 0.66c3.88 3.66 -1.46 10.04 2.5 16.6z" stroke-width="1"></path><path d="M202.24 141.36v-0.3a7.14 7.14 0 0 0 -2.3 0.26c0 -0.2 -0.46 -2.76 -0.6 -3.28a12.18 12.18 0 0 0 5.82 0.26c0.2 0 0.16 -0.4 0 -0.36a11.68 11.68 0 0 1 -6.12 -0.6c-0.2 -0.12 -0.46 0.14 -0.36 0.34 0.2 0.68 0.66 3.58 0.76 3.84a6.16 6.16 0 0 0 -1.68 0.82 0.24 0.24 0 0 0 0.2 0.36 38.58 38.58 0 0 0 4.28 -1.34zm-0.6 8.28c3.32 -0.16 3.06 -1.58 2.9 -2.6 -0.26 -1.72 -3.02 -1.74 -4.64 -1.02s-2 2 -1.44 2.8 2.58 0.82 3.18 0.82zm-2.62 -2c0.66 -1.28 4.12 -1.74 4.86 -0.7s0 2 -2 2.14a8 8 0 0 1 -2.46 -0.26 0.88 0.88 0 0 1 -0.4 -1.28zm7.32 5.94h-5.28c-0.9 0 0 4 0.12 4.14a23.82 23.82 0 0 0 -2.62 0.2c-0.3 0 -0.2 0.46 0 0.46s5 -0.26 6 -0.4c0.26 0 0.14 -0.42 0 -0.42h-2.76c0 -0.26 -0.66 -3.42 -0.6 -3.48s3.68 0 5.16 -0.2a0.2 0.2 0 0 0 -0.02 -0.3zm38 147.74c-6.14 1.12 -7.76 0.26 -21.36 5.52 -0.24 0.1 0 0.46 0 0.46a16 16 0 0 1 8.68 9.6 20.6 20.6 0 0 1 1.02 13.74 14 14 0 0 1 -3.72 5.84 0.3 0.3 0 0 0 0.3 0.5c14.86 -1.02 18.24 -2 18.86 -2.4 15.02 -11.9 1.12 -34.14 -3.78 -33.26zm8 26.78a18 18 0 0 1 -4.5 5.86c-1.06 0 -3.7 1.06 -9.04 1.74 -7.4 0.96 -6.66 0.52 -8.94 0.88 8.18 -6.72 3.84 -25.64 -6.22 -29.48a85.08 85.08 0 0 1 20.7 -5.1 17.36 17.36 0 0 1 8 10.78 21.56 21.56 0 0 1 0.02 15.32z" stroke-width="1"></path><path d="M239.7 312.56c0.2 0 0.24 -0.36 0 -0.4a11.84 11.84 0 0 0 -2.34 -0.36c-0.46 -1.58 -1.02 -3.16 -1.54 -4.76a25.4 25.4 0 0 0 8.78 0.32 0.24 0.24 0 0 0 0 -0.46 36.56 36.56 0 0 1 -9.1 -0.56c-0.2 0 -0.46 0.14 -0.36 0.34 0.56 1.7 1.02 3.38 1.64 5.02a13.12 13.12 0 0 0 -2.8 0 0.28 0.28 0 0 0 0 0.52 46 46 0 0 0 5.72 0.34zm-2.26 7a8 8 0 0 0 3.18 1.44c5.3 0.86 6 -0.92 5.82 -2.3 -0.3 -1.74 -2.3 -2.62 -3.78 -3.12s-3.78 -1.54 -5.42 -0.26a2.5 2.5 0 0 0 0.2 4.24zm-0.26 -3.22a2.58 2.58 0 0 1 2.16 -0.96 8.48 8.48 0 0 1 2.2 0.56 7.36 7.36 0 0 1 3.82 2c0.98 1.18 0.32 3.16 -3.88 2.56a8.9 8.9 0 0 1 -2.46 -0.82c-1.22 -0.58 -3.02 -1.8 -1.84 -3.34zm4.4 7.66a0.3 0.3 0 0 0 -0.3 0.3c0 0.88 -0.2 4.6 -0.2 4.96a18.84 18.84 0 0 0 -4 0.16 0.26 0.26 0 0 0 0 0.5c0.68 0 7.72 0.56 8.44 0.66 0.26 0 0.46 -0.3 0.2 -0.4a14.56 14.56 0 0 0 -4.14 -0.88 25.5 25.5 0 0 0 0.26 -4.64c1.08 0.1 6 1.38 6.6 1.44 0.2 0 0.24 -0.26 0 -0.42a42.2 42.2 0 0 0 -6.86 -1.68zm-105.08 14.36a7.5 7.5 0 0 1 3.72 -6.36c0.32 0 0.56 -0.46 0.2 -0.6a52.26 52.26 0 0 1 -15.78 -11.3 7.82 7.82 0 0 0 -6.9 2.76 9.5 9.5 0 0 0 -2 8c0.36 3.18 2 5.82 2.96 8.84 3.82 13.28 -2.26 16.96 -4.14 16.6 -0.26 0 -0.16 0.72 -0.16 0.72a118.96 118.96 0 0 0 22.64 6c0.3 0 8 -4.34 5.62 -12.26 -1.5 -4.9 -6.26 -7.9 -6.16 -12.4zm5.5 17.38a10.82 10.82 0 0 1 -4.86 6.44 82.76 82.76 0 0 1 -11.68 -2.18 91.18 91.18 0 0 1 -9.7 -2.96c2.88 -0.5 6.46 -6 4.94 -12.66a26 26 0 0 0 -1.22 -4.56c-1.86 -4.3 -4.38 -9.06 -2.66 -14a8.16 8.16 0 0 1 3.02 -4 8.38 8.38 0 0 1 4.7 -1.16 48 48 0 0 0 15.08 11.18 8 8 0 0 0 -3.32 4.4C134 344 144.16 346.86 142 355.74z" stroke-width="1"></path><path d="M128.16 337.5a0.2 0.2 0 0 0 0.22 -0.32c-0.52 -0.56 -2.52 -2 -2.86 -2.3 0.14 -0.4 1.68 -4 2 -4.8 1.64 1.38 3.32 2.72 5.02 4 0.24 0.2 0.7 -0.16 0.4 -0.4l-5.26 -4.46c-0.2 -0.14 -0.46 -0.14 -0.56 0a44 44 0 0 0 -2.26 5.1 46.26 46.26 0 0 0 -4 -2.9c-0.32 -0.16 -0.46 0.3 -0.32 0.5s6.92 5.22 7.62 5.58zM126 345a9.68 9.68 0 0 0 6 2.5c3.56 0 3.58 -4.14 -1.84 -6.84a6.5 6.5 0 0 0 -5.32 -1.02c-1.24 0.46 -1.68 2.74 1.16 5.36zm-1.38 -4.44c0.56 -1.06 4.12 -0.4 6.54 1.48 1.02 0.82 2.34 1.74 2.54 3.16 0.26 2 -1.52 2 -3.36 1.5a9.56 9.56 0 0 1 -4.86 -2.98c-0.64 -0.8 -1.48 -2.04 -0.88 -3.16zm5.94 9.44h-0.46a39.44 39.44 0 0 0 -2 5.4 30 30 0 0 0 -3.74 -2.34 0.24 0.24 0 0 0 -0.24 0.4c0.46 0.46 6.32 4.96 6.64 5.06a0.2 0.2 0 0 0 0.24 -0.26 19.64 19.64 0 0 0 -2.5 -2.5c0.36 -0.86 1.54 -4.34 1.9 -5.16 2 1.84 4 3.74 6 5.52a0.22 0.22 0 0 0 0.3 -0.3c-1.94 -1.82 -4.04 -3.82 -6.14 -5.82zm94.42 -143.04c0.2 0.16 0.4 -0.2 0.2 -0.36s-0.14 -0.6 0 -0.82c0.64 -0.44 1.66 0.18 2.72 0.36a6.52 6.52 0 0 0 1.48 0.26 0.34 0.34 0 1 0 0 -0.66c-1.54 0 -2.62 -0.7 -3.58 -0.62s-1.64 1.38 -0.82 1.84zm4.24 2.5a7.54 7.54 0 0 0 1.58 -0.46c0.16 -0.14 0 -0.36 -0.14 -0.46a7.2 7.2 0 0 0 -1.64 0.32 0.32 0.32 0 1 0 0.2 0.6zm2.78 -1.26c-0.3 0 0 -0.46 0.26 -0.36a1.28 1.28 0 0 1 0 2.34c-0.2 0 -0.6 -0.3 -0.3 -0.4 0.76 -0.26 0.8 -1.48 0.04 -1.58zm-0.9 -2.2a0.28 0.28 0 0 0 0.52 0.14 1.16 1.16 0 0 0 -0.62 -1.74c-0.22 0 -0.42 0.38 -0.2 0.52 0.88 0.3 0.3 0.86 0.3 1.08zm-8.62 3.26a0.52 0.52 0 0 0 0.5 -0.66s-0.3 -0.62 -2 -0.66c-0.22 0 -0.42 0.38 -0.36 0.6s0 0.32 0.16 0.32a2.8 2.8 0 0 1 1.7 0.4z" stroke-width="1"></path><path d="M235.56 279.56c0.14 0.1 1.88 -1.38 2 -1.42a39.04 39.04 0 0 0 4.34 5.76 1.86 1.86 0 0 0 1.88 0.62c0.5 -0.12 0.2 -0.76 0 -1.44a1.28 1.28 0 0 0 1.54 0.22c0.88 -0.74 -0.3 -1.68 -0.76 -2.46 0 0 1.48 0.92 2 0.66 1.54 -0.74 -1.58 -2.9 -2.76 -4a5.24 5.24 0 0 0 1.48 0c0.66 -0.1 0.56 -0.78 0.26 -1.24a4.66 4.66 0 0 0 -3.12 -1.26c0 -0.12 0.2 -0.32 0 -0.46 -9.8 -15.08 -16.6 -46 -20.32 -49.62a5.62 5.62 0 0 0 -0.14 -4c0.32 0 0.58 -0.14 0.88 -0.18 -0.26 1.02 2.12 2.42 2.78 2.84s2 0.6 2.3 -0.26a1.86 1.86 0 0 0 2.82 0.82 4.82 4.82 0 0 0 1.72 1.22 1.3 1.3 0 0 0 1.64 -0.86 1.62 1.62 0 0 0 2 0.2 4.24 4.24 0 0 0 1.22 -1.78 2.56 2.56 0 0 0 2.96 0.3 2.3 2.3 0 0 0 0.82 -2.86c1.68 0.34 2.32 -0.88 2 -1.64 0.2 0.36 0.76 0.3 1.08 0a4.26 4.26 0 0 0 -0.26 -4 1.18 1.18 0 0 0 1.22 -0.6 1.18 1.18 0 0 0 -0.5 -1.28 1.7 1.7 0 0 0 -0.26 -2.66 1.34 1.34 0 0 0 0.92 -1.48 4 4 0 0 0 -2.6 -3.64 2.68 2.68 0 0 0 -0.46 -3.26 4.8 4.8 0 0 0 -3.48 -0.52c-0.2 -0.86 -0.16 -3 -2.4 -2.96a5.24 5.24 0 0 0 -3.84 2.62 5.74 5.74 0 0 0 -0.46 1.78 24.44 24.44 0 0 0 -11.48 2.2c-4.5 2 -5.2 4.24 -4 8.94a4.28 4.28 0 0 0 -2.34 1.38 3.22 3.22 0 0 0 -3.28 -1.58c-1.28 -1.08 -19.5 -18.24 -15.52 -41.44 0 -0.36 -5.26 -4.5 -7.06 -6.8 -1.74 2.46 -5.88 8.12 -6 8.68 -0.82 12.74 9.24 30.46 12.66 33.72 -0.92 -0.14 -13.58 -0.66 -27.12 -15.06h-0.52c0 -1.24 0.52 -5.52 -0.6 -5.58 -0.52 0 -1.44 1.14 -1.48 1.34 -0.36 -0.66 -1.7 -4 -2.66 -4s-0.88 1.3 -0.72 2.3c0 -0.14 -1.42 -1.32 -1.78 -0.6s0.3 2.1 0.3 2.14a0.54 0.54 0 0 0 -0.62 0c-0.6 0.46 0 1.54 0.12 2a10 10 0 0 0 3.32 4.4s-0.32 0.5 -0.26 0.7c3.26 19.16 16 24.98 18 26.12 -7.46 4 -18 15.78 -19.46 17.36 -1.12 1.28 -2.56 2.92 -1.68 4.66a88.18 88.18 0 0 0 -19.16 28.86 44 44 0 0 0 -0.72 24c2 9.2 10 26.32 10 26.42a1.3 1.3 0 0 0 0.82 0.26c0 0.26 0.52 3.52 0.56 3.72 -1.26 1.54 -2 5.42 -1.58 5.82 1.12 1.14 4.34 -2.8 4.96 -3.46a2.8 2.8 0 0 0 0.92 -3.68c0 -0.32 -0.82 -2.66 -0.82 -2.86 0.52 -0.1 6.54 -1.28 9.24 -2.2 -0.92 -5.72 -2.8 -17.78 -2.86 -18 -2 -5.78 -7.5 -20.34 5.02 -34 0.2 -0.26 0.6 0.1 0.46 0.36a37.74 37.74 0 0 0 -7.2 16.54 54.5 54.5 0 0 0 4.28 22c1.08 2.14 18.4 26.76 18.86 26.72s0.6 -0.36 0.76 -0.46a10.36 10.36 0 0 0 1.38 1.64c-1.58 1.78 -1.32 6.64 -1.22 6.78 0.5 0.78 1.52 -0.14 1.88 -0.5a35.28 35.28 0 0 0 3.3 -5.56c0.28 -1.4 -1.4 -3.22 -2.36 -4.66 2.98 -2 6.76 -4.6 6.54 -4.96 -6.54 -8.38 -10 -27.32 -10 -30.4 0 -4 9.5 -29.42 9.5 -29.46a79.14 79.14 0 0 1 17.68 -17.02c6.54 16.32 22.64 28.2 25.44 30.06zM151.66 325.8c0 -0.1 -0.46 -2.5 -0.5 -2.72 0.82 0 1.84 -0.2 2.76 -0.34v1.36a4.78 4.78 0 0 0 -2.26 1.7zm34 6c0.1 0.16 0.86 1.54 0.92 1.58a21.24 21.24 0 0 0 -1.78 1.38l-1.34 -1.52c0.54 -0.34 1.36 -0.86 2.18 -1.42zm56.1 -56.2c2.76 0.46 3.22 1.38 3.16 1.38a11.86 11.86 0 0 1 -2.2 -0.24c-0.3 -0.12 -0.5 0.3 -0.3 0.5 0.72 0.66 3.52 3.52 3.62 3.62 -0.36 0 -2.52 -1.58 -3 -1.58s-0.52 0.36 -0.36 0.56a21.32 21.32 0 0 1 2 2.82c0 0.3 -1.9 -1.54 -2.24 -2s-0.82 0 -0.58 0.46a26.62 26.62 0 0 1 1.34 2.6c-0.52 -0.1 -0.92 -0.62 -1.28 -0.96s-3.78 -5.22 -3.78 -5.22a40.56 40.56 0 0 1 3.48 -2.24 0.16 0.16 0 0 0 0.12 0.32zm-26.8 -60.2c1.52 -0.64 2.36 -0.78 2.16 -1.18 -1.1 -4.76 -0.76 -6.92 4.54 -8.78a23.16 23.16 0 0 1 10.68 -1.54 13.5 13.5 0 0 1 4.38 7.66 4.78 4.78 0 0 1 -2.24 4c-1.76 1.26 -3.52 1.34 -3.82 2.2s0.5 1.38 0.2 2a2 2 0 0 1 -1.74 1.12 3.4 3.4 0 0 1 -2.3 -1.06c-0.46 -0.52 -0.86 -0.36 -1.48 -0.22s-5 0.82 -6.14 1.28c0 0 -1.52 -1.62 -7 -2.4a7.52 7.52 0 0 1 2.76 -3.08zm-3.46 3.72a14.5 14.5 0 0 1 7.2 2.26 0.34 0.34 0 0 0 0.36 0s1.38 -0.36 2 -0.46c1.02 1.12 0.36 3.52 0.3 3.66a74 74 0 0 0 -11.7 -4c0.76 -0.48 1.28 -1 1.84 -1.46zm-2 -2.96c-0.22 0.52 0.4 1.12 0.76 1.54l-2.2 -0.62c0.52 -0.26 1.44 -0.86 1.5 -0.92zM159.8 188.78c0 -0.3 0.46 0.34 1.42 1.18 0.3 0.24 0.62 -0.16 0.46 -0.46a6.58 6.58 0 0 1 -1.38 -3.02s0.36 0 0.42 0.16a18.44 18.44 0 0 1 1.58 2 0.34 0.34 0 1 0 0.56 -0.36 6.4 6.4 0 0 1 -0.66 -2.9c0.14 -0.52 0.5 0 0.6 0.3 0.72 1.34 1.44 2.6 2 4 0.16 0.36 0.78 0 0.62 -0.24 -0.22 -0.66 0.96 -2 1 -1.38v4.54a4 4 0 0 0 -3.28 1.58c-0.9 -0.86 -3.76 -4.18 -3.34 -5.4zm3.46 6.54a3.54 3.54 0 0 1 4.5 -1.84c13.74 15.68 28 15.28 28.26 15.32a19.22 19.22 0 0 0 6.12 3.88c-7.5 0.22 -19.72 7.66 -20.8 8.38a36.8 36.8 0 0 1 -18.08 -25.74zm44.56 48.48c0 -0.2 -0.46 -0.16 -0.36 0 0.56 1.68 1.28 3.32 2 4.96a80.58 80.58 0 0 0 -17.58 17.24c0 -0.74 -12.44 -3.02 -31.88 -22.94 -0.56 -2 1.52 -3.62 2.66 -4.84 10.98 -11.88 25.12 -23 41.16 -24.88 1.04 0.46 4.66 1.72 5.48 2 -0.1 0 -1.54 0.96 -2.16 1.42a0.34 0.34 0 0 0 0.12 0.66c0.56 0.22 2.8 0.78 3.32 0.88a62.66 62.66 0 0 0 -34.84 24.72c-0.22 0.26 0.24 0.46 0.4 0.26 6.94 -9.1 20.48 -21.2 34.44 -24.26 -0.52 0.46 -1.08 0.86 -1.64 1.32 -0.2 0.16 0 0.46 0.16 0.52a57.74 57.74 0 0 1 12.3 4.38c6.24 12.16 6.48 21.48 14.26 38.42a97.7 97.7 0 0 0 5.72 11.04 24 24 0 0 0 -5.36 4 75.88 75.88 0 0 1 -28.2 -34.9zm-4.14 -214.62a0.2 0.2 0 0 0 0 0.4 20.74 20.74 0 0 1 16 9.04 0.26 0.26 0 0 0 0.42 -0.3 18.8 18.8 0 0 0 -16.42 -9.14z" stroke-width="1"></path><path d="M389.84 320.54c-10.16 -6.74 -28.6 -31.22 -30 -34l9.2 3.06a0.52 0.52 0 0 0 0.56 -0.76c-5.56 -10.42 -13.12 -39.76 -13.44 -43.12a0.5 0.5 0 0 0 -0.96 -0.16c-4.2 10 -19.42 33.26 -21.36 35.6a0.54 0.54 0 0 0 0.2 0.88c3.58 0.96 7.1 2 10.68 2.86a57.5 57.5 0 0 1 -12 12.62c-4 -9.04 -8 -18.1 -12 -27.14 3.16 0.62 6.32 1.24 9.44 2a0.52 0.52 0 0 0 0.56 -0.76c-4.24 -9.06 -8 -18.3 -12.16 -27.5l7.56 2a0.52 0.52 0 0 0 0.62 -0.62 207.3 207.3 0 0 1 -6.14 -32.64 0.5 0.5 0 0 0 -0.92 -0.26c-5.1 6.8 -20.74 22 -22.58 23.46 -0.3 0.24 -0.1 0.7 0.22 0.82 3.56 1.48 7.14 2.9 10.72 4.38 -4 6.6 -19.1 19.68 -21.04 20.8a0.48 0.48 0 0 0 -0.12 0.76 19 19 0 0 0 10.58 4.3l-14 12.2a27.2 27.2 0 0 1 -3.52 -8.94l5.68 -0.82c0.4 0 0.44 -0.56 0.2 -0.8a52 52 0 0 1 -11.1 -17.78 29.06 29.06 0 0 0 10.68 0.3 0.5 0.5 0 0 0 0.22 -0.82 85.8 85.8 0 0 1 -18 -22.32c4.34 0.76 8.62 1.58 12.98 2.24a0.48 0.48 0 0 0 0.52 -0.72c-5.56 -9.28 -13.4 -36 -13.9 -38.92 0 -0.3 -0.56 -0.36 -0.66 0a146.5 146.5 0 0 1 -13.8 24.72C232.9 170 215.88 130.84 213.12 124.4c2.46 -0.82 6.6 -2.54 6.14 -8.36a18.56 18.56 0 0 0 11.08 -5.78c1.18 -1.38 7.16 -12.32 9.1 -16.3 0 -0.16 31.26 -4 57.06 -13.64 2.6 -0.98 5.88 -1.84 6.9 -4.76a8.3 8.3 0 0 0 -0.4 -5.06c-0.12 -0.3 -4.56 -6.28 -41.74 -17.36 -4.3 -1.28 -24 -5.52 -24.64 -5.52a2.48 2.48 0 0 0 0 -1.84c-3.22 -7.2 -11.84 -1.22 -15.78 0.26 -2.92 1.06 -21.82 7.72 -53.9 -0.98 -1.42 -0.4 -2.86 -0.96 -4.3 -1.32 3.04 -10.72 12.4 -16.24 23.26 -18.3s23.7 -2 32.7 4.2a21.06 21.06 0 0 1 8.98 12.92c0.1 0.62 1.04 0.36 0.92 -0.26 -1.6 -8.52 -9.66 -16.48 -22.78 -18.34 -9.86 -1.36 -25.22 0 -34.18 6.4A21.6 21.6 0 0 0 162 43.74c-7.86 -1.08 -8.48 3.52 -8 4 -47.44 11.32 -62.62 25.32 -62.56 25.52a20.84 20.84 0 0 0 11.54 11.66c2.76 1.28 16.5 6 67.14 10.52a340.94 340.94 0 0 0 68.7 -1.64c-3.32 7.26 -8.68 16 -11.18 18.2 -3.02 2.7 -10.18 3.52 -10.94 3.72a111.12 111.12 0 0 1 -39.24 -0.62c-3.32 -0.76 -9.7 -2.6 -12.26 -4.84 -1.42 -1.34 -10.46 -12.52 -12.86 -15.84 -0.16 -0.2 -0.52 0 -0.36 0.2 2 2.96 12 15.38 13.22 16.3a25.28 25.28 0 0 0 6.8 3.22c0 4.86 4.18 8.68 8.28 10 -2.82 7.62 -28.96 75.82 -34.64 89.46q-8.52 -10.4 -16.92 -20.94c-0.24 -0.3 -0.72 0 -0.76 0.3 -1.46 10.2 -8.88 35.52 -10 38.22a0.44 0.44 0 0 0 0.4 0.56 40.46 40.46 0 0 0 8.84 -1.74 95.46 95.46 0 0 1 -14.56 20.44c-0.2 0.26 -0.1 0.76 0.32 0.72 4.12 -0.42 8.32 -0.68 12.46 -1.02a151.32 151.32 0 0 1 -15.42 16.34 0.38 0.38 0 0 0 0.3 0.66c2.92 -0.36 5.88 -0.56 8.8 -0.86L114 278a124.18 124.18 0 0 1 -13.38 -10.78c2.34 -0.52 4.7 -0.98 7.04 -1.48 0.42 0 0.46 -0.56 0.22 -0.88 -3.22 -3.88 -20 -27.48 -20.8 -29.72 2.92 0 5.82 -0.66 8.74 -0.82a0.52 0.52 0 0 0 0 -1.02c0.2 0 -14.26 -23.7 -16 -26.16a0.48 0.48 0 0 0 -0.86 0c-1.44 8.12 -8.48 28.2 -9.5 30.4a0.5 0.5 0 0 0 0.4 0.72 19.1 19.1 0 0 0 7.72 -1.48c-2.14 8.84 -10.26 30.96 -11.4 33.4 -0.14 0.36 0.12 0.78 0.52 0.66 2.34 -0.66 4.76 -1.38 7.1 -2a233.84 233.84 0 0 1 -9.3 28.8s-10.26 -9.34 -13.7 -15.22a43.62 43.62 0 0 0 12 0.32c0.36 0 0.68 -0.42 0.46 -0.78 -5.64 -9.28 -17.52 -34.38 -18.74 -37.18 -0.16 -0.42 -0.66 -0.22 -0.82 0 -2.14 5.4 -17.22 36 -19.46 38a0.44 0.44 0 0 0 0.3 0.76c4.8 -0.58 9.6 -0.96 14.4 -1.48 -5.4 10.84 -26.2 34 -28.86 36.22 -0.3 0.26 0.16 0.68 0.42 0.42 9.6 -7.82 28 -33.82 29.58 -36.94a0.46 0.46 0 0 0 -0.36 -0.66l-13.8 1.38c3.42 -3.32 17.12 -33.62 18.24 -36.38 4.18 9.66 16.3 33.36 17.82 35.72a44.78 44.78 0 0 1 -11.9 -0.52 0.5 0.5 0 0 0 -0.56 0.72 48.7 48.7 0 0 0 14.4 16.34c0.22 0.16 0.88 0.26 0.98 0 3.62 -7.36 9.5 -27.68 10 -30a0.48 0.48 0 0 0 -0.58 -0.56l-6.88 2c3.66 -8.38 10.66 -31.02 11.28 -33.62a0.46 0.46 0 0 0 -0.66 -0.52 18.76 18.76 0 0 1 -7.46 1.74c3.38 -7.36 8.68 -26.82 9.04 -28.8 2.82 4.24 14.36 24 14.86 24.76a70.98 70.98 0 0 1 -8.26 0.78 0.48 0.48 0 0 0 -0.46 0.66c1.62 4.44 19.04 28 20.74 30l-7.16 1.54a0.52 0.52 0 0 0 -0.2 0.88 112.38 112.38 0 0 0 15.06 12.14c0.56 0.38 1.04 -0.5 0.52 -0.86 0 0 3.4 -8.46 5.36 -12.56a0.38 0.38 0 0 0 -0.3 -0.56l-8.28 0.76a144.76 144.76 0 0 0 15.12 -16.4c0.2 -0.26 0.1 -0.7 -0.3 -0.66 -4.14 0.4 -8.22 0.66 -12.36 0.96a93.82 93.82 0 0 0 14.5 -20.74c0.16 -0.3 0 -0.76 -0.46 -0.6a37.6 37.6 0 0 1 -8.94 2c3.78 -9.44 9.3 -34.22 9.6 -36.78q8.28 10.26 16.5 20.58C144.1 217.08 77.26 374 76.36 376c-0.2 0.48 0.56 0.62 0.72 0.22 6.94 -17.12 60.44 -132 103.76 -252 4 1.16 19.46 3.78 31.58 0.46 56.8 139.56 108.46 248.18 109.26 250 0.16 0.3 0.62 0 0.46 -0.26 -4.24 -9.1 -39.84 -90.52 -69.36 -158.16a145.14 145.14 0 0 0 13.64 -24c1.72 10.32 11.74 34.8 13.08 37.2 -4.36 -0.78 -8.62 -1.62 -12.98 -2.26a0.5 0.5 0 0 0 -0.56 0.72 82.26 82.26 0 0 0 17.88 22.74 26.98 26.98 0 0 1 -10.12 -0.66 0.5 0.5 0 0 0 -0.62 0.6 52.56 52.56 0 0 0 10.98 18.3c-1.72 0.26 -3.52 0.46 -5.26 0.76a0.56 0.56 0 0 0 -0.36 0.62 29.16 29.16 0 0 0 4 10.22 0.54 0.54 0 0 0 0.78 0c5.24 -4.36 10.26 -8.94 15.42 -13.4a0.48 0.48 0 0 0 -0.36 -0.8 18 18 0 0 1 -10.58 -3.68c6.64 -4 20 -19.26 21.1 -21.26a0.5 0.5 0 0 0 -0.3 -0.72l-10.52 -4.14c6.44 -5.26 20.18 -20.6 21.36 -22.12a213.44 213.44 0 0 0 5.76 30.74c-2.56 -0.66 -5.14 -1.42 -7.72 -2a0.54 0.54 0 0 0 -0.56 0.78c4.28 9.08 8.14 18.34 12.16 27.52 -3.16 -0.6 -6.32 -1.22 -9.44 -1.88a0.52 0.52 0 0 0 -0.56 0.76c4.46 9.46 8.6 18.98 12.66 28.62 0.12 0.24 0.52 0.34 0.66 0.14a58.4 58.4 0 0 0 13.24 -13.84 0.52 0.52 0 0 0 -0.3 -0.76c-3.54 -0.98 -7.1 -2 -10.64 -2.86 6.7 -8.38 19.32 -31.38 20.28 -33.58 1.18 11.2 11.3 37.86 12.72 40.52l-9.14 -3.06c-0.46 -0.16 -0.76 0.36 -0.56 0.76 5.42 11.08 23.6 30.14 30.96 35.2 0.96 0.12 1.38 -0.6 0.96 -0.9zM238.6 54.38c2.44 0.36 23.76 5.24 31.5 8.52a0.76 0.76 0 0 1 -0.6 1.38c-2 -0.76 -22.66 -7.26 -31.16 -8.46a0.74 0.74 0 0 1 0.26 -1.44zm-83.76 -7.42c0.14 -0.62 3.16 -4.3 11.28 -1.24 1.44 0.58 35.2 12.28 64.84 -2.5 0.92 -0.46 5.06 0.92 5.06 4a4 4 0 0 1 -2.46 3.16c-37.76 17.78 -77.14 -0.96 -77.8 -1.62 -0.36 -0.48 -1.08 -1.14 -0.92 -1.8zm66.46 48a399.24 399.24 0 0 1 -90.62 -4.7c-3.88 -0.64 -17.54 -2.94 -22 -4.1 -8.8 -2.26 -14.32 -7.5 -16.24 -12.2a27.12 27.12 0 0 0 5.88 2.86c8 2.96 24.3 7.36 57.62 9.2 42.84 3 106 1.68 146.36 -14.52 1.28 4.56 -0.16 6.16 -4.7 7.82a296.28 296.28 0 0 1 -76.3 15.56z" stroke-width="1"></path></g></svg>