<svg xmlns="http://www.w3.org/2000/svg" viewBox="0 0 400 400" height="400" width="400"><g fill="#000000" fill-rule="evenodd"><path d="M148.66 339.46c0.68 -2 -0.92 -12.5 -1.26 -14.66a178.94 178.94 0 0 0 -4 -19.44c-0.8 -2.68 -0.9 -2.7 -3.38 -2.24 -2.8 0.54 -7.6 1.86 -7.6 1.86a0.32 0.32 0 0 0 -0.24 0.32c-0.1 5.36 3.02 31.68 5.76 35.82 0.42 0.62 1.5 0.56 2.56 0.46a45.1 45.1 0 0 0 7.52 -1.4 1.1 1.1 0 0 0 0.64 -0.72zm8.72 -8.66a1.02 1.02 0 0 0 0.68 0.3 28.94 28.94 0 0 0 6.7 -1.02c0.78 -0.24 1.24 -0.5 1.36 -2 0.42 -5.22 -2.82 -23.48 -4.48 -28.4 -0.22 -0.64 -0.36 -1.04 -0.98 -1.16a31.64 31.64 0 0 0 -8 1.28 0.52 0.52 0 0 0 -0.3 0.48c-0.06 2.62 2.84 28.36 5.02 30.52zm24.74 -26.7c-0.24 -1.3 -1.52 -8.28 -2.64 -8.98 -1.84 -1.1 -7.82 0.6 -7.58 1.78 0.9 5.86 2.46 16.16 3.8 22 0.22 0.86 1.24 0.88 2.12 0.82a15.78 15.78 0 0 0 5.66 -1.5c0.4 -0.4 0.32 -1.2 0.28 -2 -0.16 -2.44 -0.82 -7.56 -1.64 -12.12zm-0.48 25c0 0.98 -8 14.32 -10.5 18.44 -2.66 -1.8 -5.84 -5.24 -7.86 -5 -3.42 0.44 -19.72 18 -20.66 18.94s-0.14 0 -0.16 0a0.32 0.32 0 1 0 0.34 0.56 0.6 0.6 0 0 0 0.22 -0.14c3.06 -2.52 16 -15.22 19.72 -17.44 0.66 -0.42 0.7 -0.42 1.24 -0.18 2.8 1.28 6.76 6.36 8.22 4.4s10 -18 10 -19.66a0.34 0.34 0 1 0 -0.56 0.08zm-39.02 32.38s-0.16 0 0 0z" stroke-width="1"></path><path d="M386.74 367.4c-1.52 -3.76 -49 -121.7 -52.48 -123.44 -1.68 -0.84 -26.12 -0.84 -28.96 -0.86 1.84 -32.56 -8.6 -73.32 -34 -93.76 -13.68 -10.98 -30.9 -17.04 -48.44 -19.42 0 -2 -0.46 -13.72 -0.34 -15.7a13.26 13.26 0 0 0 2.36 -1.88 5.58 5.58 0 0 0 2 0.4 2.32 2.32 0 0 0 0.68 -0.2 9.7 9.7 0 0 0 4.28 -2.86 12.16 12.16 0 0 0 2.7 -5.68 21.08 21.08 0 0 1 -0.32 -4c2 -6.84 7.12 -16.36 4 -22.52 -1.44 -2.76 -4.46 -4 -6.44 -6.12s-3.46 -5.16 -6.18 -7.48a21.02 21.02 0 0 0 -7.88 -3.08 26 26 0 0 0 -8.16 -0.3 70.42 70.42 0 0 0 -11.82 2c-3.1 -0.1 -5.52 -1.56 -11.32 0.44a14.58 14.58 0 0 0 -9.16 8.14c-1.58 3.46 -1.72 6.36 -5.1 13.5 -1.46 3.1 -2 3.32 -3 3.82 -1.4 0.66 -2.34 1.24 -1.84 2.9 0.98 3.3 7.28 3.46 10.54 2.46 0 1.56 0.14 3.56 1.24 14.5a5.6 5.6 0 0 0 -0.18 5.32 8.9 8.9 0 0 1 0.7 2c0.34 2 -0.28 4.76 0.42 6.46a17 17 0 0 1 1.1 2.16 9.22 9.22 0 0 0 1.28 4.68 6.14 6.14 0 0 0 2.14 1.42 1.8 1.8 0 0 1 -0.56 0.16c-9.52 2.74 -18.2 3.2 -34.4 15.54 -14.76 11.26 -14.98 14.74 -38.84 44 0.1 0.2 5.36 11.66 6.74 16.3 0.28 0.98 0.5 1.84 0.68 2.6a0.32 0.32 0 1 1 -0.62 0.2c-0.42 -0.94 -1 -2.12 -1.64 -3.44 -4.38 -9.12 -7.26 -18.48 -19.1 -38.62 -3.02 -5.14 -5.8 -9.18 -7.22 -10a4.3 4.3 0 0 0 -1.16 -0.3c0 -8.92 0.4 -9.16 -2.9 -9.08 -0.3 -2 -0.56 -3.7 -0.66 -4.3a41 41 0 0 0 6.4 -10.12 5.08 5.08 0 0 0 -3.78 -5.54 2.14 2.14 0 0 0 -1.4 0.38 2.62 2.62 0 0 0 0.18 -1.02 5.48 5.48 0 0 0 -5.18 -4.34c-2.14 0 -4.82 4.58 -6 6.46a40.62 40.62 0 0 1 0 -7.64c0.58 -3.78 4.8 -10.82 4.18 -13.34 -0.18 -0.78 -0.84 0 4.74 -0.86a35.64 35.64 0 0 0 13.08 -4.12 53.5 53.5 0 0 0 19.24 -18.82c4.68 -0.56 12 -3.02 14 -7.08a0.36 0.36 0 0 0 -0.12 -0.46c-0.8 -0.46 0 1.74 -8 4.46a37.14 37.14 0 0 1 -4.84 1.26 48.24 48.24 0 0 0 4.88 -13.82c4.5 -0.46 11.58 -2 13.06 -6.36a5.06 5.06 0 0 0 0 -4.1c-0.92 -1.72 -2.84 -2.38 -4.64 -3.36a0.34 0.34 0 0 0 -0.36 0.58c3.08 2 5.02 2.96 3.66 6.36s-7.82 4.74 -11.36 5.2C127.3 36.12 106 12.34 74.6 10.12a49.52 49.52 0 0 0 -32.82 10.46 45.34 45.34 0 0 0 -13.08 16.48A68.26 68.26 0 0 0 22.54 56c-2.42 -1.76 -6.22 -5.06 -6 -8a3.42 3.42 0 0 1 2.8 -3.7c2.38 -0.62 3.58 -0.26 3.5 -0.92a0.36 0.36 0 0 0 -0.38 -0.3c-2.92 0.26 -6.74 -0.48 -7.42 4.78 -0.42 4 4 7.78 7.24 10a42.7 42.7 0 0 0 0.94 16c-3.04 -2 -8.72 -7.16 -9.32 -10.58a0.34 0.34 0 1 0 -0.66 0c0 4.8 6.28 10.42 10.68 12.9 3.46 10.5 11.7 20.24 25.48 26.58A55.14 55.14 0 0 0 74.1 108c-3.12 2.42 -6.2 8.76 -7.74 12.4a17.08 17.08 0 0 0 -0.54 7.6 9.68 9.68 0 0 0 -3.3 -4.84A9.36 9.36 0 0 0 59.6 122a2.72 2.72 0 0 0 -2.4 0.74c-1.78 1.76 -0.14 7.2 0.14 9.28 0.56 4.2 4.74 15.6 6.22 19.6a3.72 3.72 0 0 0 -1.56 2.54 17.76 17.76 0 0 0 0.96 5.84c-1.14 0.56 -1.74 1.2 -1.76 1.82 -0.12 7.6 1.18 38 11.08 61.4 5.22 12.34 12.86 22.64 24 26.6 -2.9 4.74 -61.18 125.26 -60.96 125.56 0 0 0.44 0.24 0.64 -0.14 1.6 -3.08 58.98 -120.44 61.8 -124.92a22 22 0 0 0 18.5 -2.26c6.5 -0.34 14.48 -0.64 23.46 -0.94 1.74 0.9 105.78 -2.14 127.38 -2.3 0.64 -1.34 1.22 -2.5 1.48 -2.98 -2.72 -11.18 -6.74 -28.38 -4 -39.44a0.32 0.32 0 0 1 0.4 -0.26c0.82 0.18 -0.62 0.9 0 9.84a241.42 241.42 0 0 0 4.92 29.8s-4 9.1 -8.56 20.3c-3.84 -0.38 -52.2 -4.96 -55.22 -3.3 -1.2 0.66 -2.52 4.88 -2.92 6.18 -19.8 1.88 -64.76 9.1 -67.68 12.94 -0.68 0.86 0.66 9.34 0.92 11.02 -3.24 0.66 -16.46 3.22 -16.8 5.88 -2.38 17.72 2.96 75.02 6.78 94.46a0.78 0.78 0 0 0 0.52 0.58c2.24 0.84 74.56 -4.66 91.56 -9.3 1.18 -0.32 3.42 -0.92 4 -2a18.16 18.16 0 0 0 -0.28 -5.64c22.52 -3.18 23.68 -3.62 24 -4.28a17.28 17.28 0 0 0 -0.66 -5.44c5 0.36 27.78 2 32.72 1.9 1.56 0 1.54 0 2.46 -5.56 2.68 -16.16 7.7 -55.68 9.86 -74.66 6.28 -11.54 13.74 -27.24 14.64 -40.22 2.1 0 26.26 0 28.32 0.62 4.38 5.58 49.44 114.6 52.6 122.34a0.34 0.34 0 0 0 0.58 -0.2zM104.34 86.94c-2.18 -0.34 -5.5 0.42 -6.2 -0.28 -0.36 -0.4 0 -2.46 0.18 -2.98 0.74 -3.54 -1.14 -4.84 3.78 -8.58a12.34 12.34 0 0 0 5.06 -5.52c0.12 -0.34 0 -0.84 -0.32 -1.46 -0.8 -2.26 -2.82 -7.66 -3.02 -8.96 -1.46 -8.94 -16.82 -10.74 -13.72 -20s14 -9.86 23.62 -6.76a50.8 50.8 0 0 1 7.12 35.04c-9.28 0.96 -10.78 -0.42 -10.92 0.36a0.32 0.32 0 0 0 0.26 0.38 36.74 36.74 0 0 0 10.34 0.88 46.34 46.34 0 0 1 -5.26 14 16.28 16.28 0 0 1 -7.68 -0.42 0.32 0.32 0 1 0 -0.3 0.58 13.12 13.12 0 0 0 6.98 1.54 50.62 50.62 0 0 1 -4.58 6.16c-2.64 -2.26 -3.22 -3.64 -5.34 -3.98zm-26.8 -39.6c-1.72 5.14 -5.88 3.16 -10.72 2.72 -12.88 -1.12 -6 19.78 -14 22.48 -1.3 0.44 -2 0.3 -2.22 -1 -0.6 -3.54 2.68 -12.34 3.12 -15.74 0.12 -0.78 0.16 -1.78 -0.54 -2.12 -3 -1.46 -5.62 -0.28 -8.48 1.42 -3.66 2.2 -4.1 2.56 -6.48 1.88 -1.5 -0.44 -2.94 -1.1 -3.86 -0.64 -1.6 0.82 -1.68 3.2 -2.38 4.98a59.3 59.3 0 0 1 -8.18 -4.54 65.28 65.28 0 0 1 6 -19.22 43.02 43.02 0 0 1 12.86 -15.86 51.52 51.52 0 0 1 25.1 -10 46.88 46.88 0 0 1 6.5 0 15.58 15.58 0 0 1 6 9.22c0.7 5.02 -6 6.92 -7.76 11.74 -2.5 6.58 6.56 10.1 5.04 14.68zm-54 11.28a36.74 36.74 0 0 0 7.86 3.68 2.42 2.42 0 0 1 -0.32 0.32 8 8 0 0 1 -7.76 0.4c0.04 -1.46 0.12 -2.92 0.26 -4.4zM50 101.32c-10.84 -4.96 -20 -12.9 -24.2 -24.14a11.86 11.86 0 0 0 5.86 1.04 0.34 0.34 0 1 0 0 -0.66 15.38 15.38 0 0 1 -6.58 -2.48 39.76 39.76 0 0 1 -1.78 -11.32c4.4 1.72 7.8 0.44 8.92 -1.18 1.1 0.34 2.16 0.6 3.14 0.8a0.36 0.36 0 0 0 0.42 -0.24c0.12 -0.48 -0.26 -0.26 -3.08 -1.46 0.5 -1.16 0.72 -2.68 1.26 -3.68s1.06 -0.92 1.78 -0.74c1.54 0.42 3.62 1.48 5.36 0.92 3.66 -1.18 7.32 -5.36 11.34 -3.42 0.22 2.36 -4 12.26 -3.34 16.84 0.3 2.18 1.74 3.2 4.2 2.38 5.22 -1.72 5.34 -8.98 6.42 -14.74 1.44 -7.66 3.86 -8 8.16 -7.38a19.18 19.18 0 0 0 6.84 0.4 5.86 5.86 0 0 0 4.34 -4.4c1.14 -3.46 -1.68 -6.1 -3.62 -8.74 -6.54 -8.92 7.6 -10 6.38 -18.44a16 16 0 0 0 -5.4 -9.18c13.2 1.48 28.36 8 36 18.84a56.48 56.48 0 0 0 -5.74 -1.2c-8.24 -0.82 -15.66 1.64 -18.26 9.5 -3.56 10.68 12.4 12.72 13.76 20.78 0.28 1.58 3.2 9.12 3.46 10 -1.5 4 -7.76 5.34 -8.3 10.26 -0.14 1.28 0 2.64 -0.2 3.86 -0.38 2 -0.72 4 1.16 4.38s5.58 -0.74 7.14 0.4 2.54 2.28 3.66 3.18A54.42 54.42 0 0 1 96.22 102c-8.6 5.06 -22.52 5.08 -32.4 3.68A51.88 51.88 0 0 1 50 101.32zm8.56 30.44c-0.16 -1.34 -1.54 -7.02 -0.44 -8s2.5 0.16 3.64 0.76c1.9 0.98 3.4 6.64 4 8.68 0.24 0.76 0.5 1.52 1.22 1.52 2 0 0 -4.18 0.14 -10a9.56 9.56 0 0 1 0.58 -3.56c1.46 -3.42 6.48 -14 9.76 -12.32 0.26 2 -3.68 9.2 -4.2 12.66a52.5 52.5 0 0 0 0.26 10.78 0.8 0.8 0 0 0 0.66 0.72c1.16 0.22 0.88 -1.32 4.16 -6 0.36 -0.52 1.86 -2.52 2.48 -2.52a4 4 0 0 1 3.62 2.84c0.1 1.46 -4.2 6.76 -4.6 7.28a0.74 0.74 0 0 0 1.16 0.92c0.96 -1.12 4.46 -5.88 6 -6.32a3.86 3.86 0 0 1 3 3.82 21.14 21.14 0 0 1 -2 4.18c-3.12 5.16 -4.28 5.66 -4.18 6.26 0 0 0.34 2 0.76 4.4a144.74 144.74 0 0 0 -20.14 3.2c-1.36 -3.78 -5.34 -15.38 -5.8 -19.3zm5 28a16.84 16.84 0 0 1 -0.52 -5.4 2.62 2.62 0 0 1 1.82 -2c0.32 -0.12 1.54 -0.32 3.22 -0.62a160.72 160.72 0 0 1 18.6 -2.6c0 0.12 0.56 4.32 0.84 7.66 -5.12 -0.44 -18.54 0.86 -23.88 2.96zm75.02 85.84c-7.32 0.24 -14 0.5 -19.62 0.78 9.3 -6.22 16 -15.54 21 -21.84 -0.56 4.62 -2.48 16.94 -1.38 21.06zm46.4 -114.8c0 0.38 -1.26 -0.98 21.62 20.6 -1.7 1.62 -8 6.2 -10.68 10 -3.4 -4.34 -8.16 -11.02 -11.36 -16a75.18 75.18 0 0 1 -0.34 -14zm15.72 112.1c-2.88 -5.52 -13.04 -65.5 -15.84 -94.28 1.76 2.82 9.86 14.62 10.82 15.04a0.84 0.84 0 0 0 1.06 -0.36 20.98 20.98 0 0 1 3.8 -4.48c1.74 7.86 2.18 8.44 2.84 8.68 -0.76 12.58 -1.68 41.36 1.7 53.62 1.88 6.8 10.62 16.36 15.6 21.34 -2.54 0.28 -18.04 1.16 -19.98 0.44zm22.5 -111.48c1.04 0.42 2.6 0.86 3.68 1.18a58.88 58.88 0 0 1 2 7.74 177.42 177.42 0 0 1 -8.5 19.5c-2.9 -2.86 -7.38 -7.48 -11.32 -8.46 2.7 -3.78 11.72 -16.92 14.14 -19.96zm-1.26 110c-4.74 -4.72 -13.52 -14.26 -15.34 -20.7 -3.3 -11.48 -2.96 -41.12 -2.56 -53.04a51.28 51.28 0 0 0 7.52 -0.12c2.72 -0.2 2 -0.3 2.9 -0.2a162.26 162.26 0 0 0 1.76 23.52c2.2 12.22 4.6 12.94 10.5 24.14 -1.26 8.32 -2.72 16.58 -4.72 26.38zM217.6 190.6c-2.3 -11.78 -1.86 -22.34 -2.3 -23.72a1.26 1.26 0 0 0 0.34 -0.4c0.16 -0.52 0.86 -4.72 1.3 -8.42 1.06 1.1 2 2.16 2.88 3.06 0.3 0.32 0.86 0.44 1.48 -0.2 2.12 -2.16 7.12 -14.62 8.24 -17.46 3.34 20.38 0.58 48.3 -2.42 68.84 -4.8 -8.82 -7.12 -9.9 -9.52 -21.7zm-9.88 -38h2.44a22.78 22.78 0 0 1 5.3 4c-0.38 3.38 -1.06 7.8 -1.32 9a75.76 75.76 0 0 1 -8.56 0.54 10.92 10.92 0 0 1 -1.66 0c-0.24 -0.64 -1.5 -4.62 -2.48 -8 2.36 -2.3 5.14 -4.48 6.28 -5.56zm19.54 -20.92a45.4 45.4 0 0 1 10 2.24c0.12 0.32 14.74 42.24 15.28 45.02 -1.58 0.9 -10.98 3.2 -12.94 4.16 0 0 -0.78 1.1 0.18 1.48a92.58 92.58 0 0 1 10.68 4.14c-1.34 3.3 -25.32 48 -26 49.5 5.42 -27.82 12.92 -80.04 2.8 -106.56zm-30.3 -16.26c-3.28 2.86 -8.52 1.66 -8.36 0.84 0 -0.5 0.48 0 3.3 -0.5a10.22 10.22 0 0 0 2.64 -0.76 8.18 8.18 0 0 0 3.26 -2.82c0.66 -1 0.62 -1.34 1 -1.24s-0.02 2.9 -1.84 4.48zm2 127.36 -5.62 -0.22L171.74 190c8.54 -9.7 8.82 -10.24 8.14 -10.9 -0.28 -0.3 -0.72 -0.22 -1.76 -0.14 -2 0.18 -8.86 0.76 -10.88 0.6 0.26 -1.7 8.72 -44 9.16 -46.14l7.16 -2.16c-2.32 14.84 10.7 99.04 15.3 111.52zm19.7 -126.44a9.36 9.36 0 0 0 0.34 -2.38c0 -0.38 0.5 -0.8 0.66 -1.28a18 18 0 0 0 0.88 -5.88 26 26 0 0 1 -0.3 -2.96c0.92 -7.16 5.44 -6.52 6.32 -4.92a4.8 4.8 0 0 1 0.38 2.58c-0.68 9.16 -3.68 8.76 -2.96 10.12 -2 1.9 -2.5 1.46 -2.6 2.32 -0.2 1.74 0 15.44 0.12 17.16l-13.52 19.26c-21.54 -20.36 -19.32 -18 -18.36 -17.7a8.4 8.4 0 0 0 4.52 1.04c2.3 -0.26 4 -1.5 6.18 -1.84 1.32 -0.2 2.62 -0.22 4 -0.38a19.26 19.26 0 0 0 7.18 -3.02c2.34 -1.34 4.58 -1.26 5.78 -9.02a10.52 10.52 0 0 1 1.28 -3.1zM182.26 108c-0.74 -0.44 -1.1 -1.02 -1.74 -1.14 -0.42 -4.92 -1.1 -9.44 -1.2 -14 2.8 -1.84 3.54 -5.34 4.62 -8.16s2.64 -6.52 5.6 -7.86c6.84 -3.08 4.8 4.32 9.74 2.16a24.58 24.58 0 0 1 3.44 -1.8 7.64 7.64 0 0 1 7.16 4c3.48 6 0.46 7.18 6.42 12.36a11.56 11.56 0 0 1 1.3 4.48 50.38 50.38 0 0 0 -2 4.76c-0.56 2.44 1.02 6.46 -0.68 8.3 -2.74 -1.14 -0.7 -1.76 -8.28 -2.78 -5.74 -0.78 -11.12 0.92 -16.6 1.58a13.38 13.38 0 0 1 -7.78 -1.9zm70 231.48 -3.66 -0.38a67.22 67.22 0 0 0 4 -6.6 20.12 20.12 0 0 0 -0.4 7.04zm3.24 0.42c-0.64 0.62 -1.38 0.64 -1.7 -0.26 -0.9 -2.4 0.88 -9.02 1.32 -11.12 0.14 -0.62 0.34 -1.26 0 -1.7 0 0 -0.96 -0.48 -1.38 0.34 -1.16 2.24 -6.28 12 -8.56 13.18 -3.12 -1.9 2.34 -12 4.32 -15.1a0.84 0.84 0 0 0 -1.4 -0.9c-2 3.12 -7.46 10.56 -10.9 12a1.7 1.7 0 0 1 -1.48 0c-2.34 -1.46 7.78 -14.22 8.88 -16 0 -0.18 0 -1.28 -0.9 -1.06a12.92 12.92 0 0 1 -2.82 0.68c-2.28 0 -6 0.78 -7.04 -1.28 -1.22 -2.62 5.26 -4.94 8 -5.6 0.54 -0.12 2.3 0.2 2.6 -0.42l0.18 -0.34a98.68 98.68 0 0 0 16.98 8c-1.6 3.54 -3.38 16.88 -6.16 19.68zm-12.92 -1.42 -5.18 -0.48a18.34 18.34 0 0 0 6.32 -5.2 14.62 14.62 0 0 0 -1.2 5.74zm4 -26.74c-2.26 -1.24 -2 -1.16 -1.88 -1.4a67.82 67.82 0 0 1 2.68 -6.48 213.06 213.06 0 0 0 20.96 9.56c-0.78 2.18 -2 5.16 -4 6.22 0 0.68 -11.64 -4.48 -17.84 -7.84zM136 278.34c2.34 -3.06 37.16 -8.3 41.04 -8.88 9.1 -1.32 18.22 -2.42 25.7 -3.1 -1.1 3.74 -2.3 8.66 -3.54 14.28 -10.94 0.2 -45.84 4.94 -62 8.16 -0.14 -0.8 -1.6 -9.9 -1.2 -10.46zm84.9 99.52c-5.66 4.54 -86.3 10.78 -93.16 10.62 -4 -19.58 -9.64 -77.46 -7.48 -93.54 0.66 -4.94 66.34 -12.6 78.62 -12.86 -3.84 17.62 -12.32 65.74 -12 73.22 0 1.74 -0.56 2.8 31.48 5.74 0.58 2.46 2.76 14.32 2.56 16.82zm22.9 -14.64c0.2 1 0.7 3.5 0.78 4.5 -2.44 0.62 -9.16 1.56 -22.7 3.44 -0.4 -2.72 -0.98 -6.1 -1.7 -10 24.78 2.26 23.58 1.74 23.64 2.06zm34.44 0.24c-5.1 0.16 -80.8 -4.56 -89.72 -8 -0.62 -6.54 7.02 -50.78 8.36 -58.12 0.6 -3.3 6.6 -36.28 9.52 -38s49.5 3.36 54.42 4c-4 9.82 -8.6 21.04 -11.5 29.12a361.08 361.08 0 0 0 -37 -3.32 0.34 0.34 0 0 0 0 0.68c0.3 0 4.54 0.68 9.54 1.26 1.48 0.18 18 1.7 19.22 1.78s5.52 0.28 8 0.4a65.54 65.54 0 0 0 -2.68 8.78c-0.14 0.92 0 1.22 0.36 1.48 -1.74 3.2 -3.82 6.5 -3.5 7.64a2 2 0 0 0 0.66 0.8s0 0.2 -0.16 0.32a10.94 10.94 0 0 0 -5 0.84 163.1 163.1 0 0 0 -29.02 -3.28 0.34 0.34 0 1 0 0 0.66l7.08 1.1c1.34 0.18 13.74 1.66 15.42 1.82l4.86 0.34c-2.66 1.12 -5.56 2.96 -4.4 5.6s5.36 2.12 8.16 2.14a6.34 6.34 0 0 0 1.38 -0.16c-2.96 4 -11.08 13.78 -7.54 16.42 -10.12 -1.02 -27.84 -2.66 -29.42 -2.8a0.34 0.34 0 0 0 0 0.68c27.84 3.58 22.96 2.98 37.68 4.42a3.26 3.26 0 0 0 1.6 2c1.12 0.6 2.28 -0.5 3.1 -1.44l5.34 0.5a2.2 2.2 0 0 0 3.12 0.32c8.12 0.78 15.2 1.46 16 1.52 0.42 0 0.5 -0.6 0 -0.66 -2.14 -0.3 -11.28 -1.58 -15.04 -2 2.68 -4.12 4 -16.22 5.38 -19.34 0.62 0.2 1.88 0.54 2.44 0.2 2.24 -1.38 3.4 -4.62 4 -7.2 0.96 0.38 1.74 0.66 2.32 0.86a0.86 0.86 0 0 0 0.96 -0.32 300 300 0 0 0 16.14 -25.46c-0.32 3.44 -8.78 69.96 -10.06 74.42z" stroke-width="1"></path><path d="M84.16 98.68a3.02 3.02 0 0 0 3 -3.86c-0.5 -1.7 -2 -3.46 -2.32 -5.24 -0.34 -2.92 1.64 -6 -0.6 -7.66 -1.36 -1.02 -4.46 -0.34 -7.84 -1.58 -1.78 -0.66 -3.28 -2.3 -5.24 -2.94a5.48 5.48 0 0 0 -6.32 3.28c-1.26 2.38 -1.56 4.52 -4.6 5.36 -3.4 0.96 -17.18 -0.2 -15.48 6.66 0.82 3.3 4.92 4.64 8.28 4.98 4.74 0.48 9.24 -1.8 13.72 -1.16 2 0.28 4.2 0.32 7.08 0.62 5.68 0.6 7.82 1.78 10.32 1.54zm-11.18 -3.2c-2.36 -0.24 -4.24 -0.32 -6 -0.58 -4.98 -0.72 -8.98 1.62 -13.78 1.1 -2.54 -0.24 -6.2 -1.24 -6.84 -3.72 -1.14 -4.52 10.92 -3.8 14.3 -4.78 5.7 -1.68 3.82 -7 8 -8.88a2.9 2.9 0 0 1 2 0c2.74 0.78 3.24 2.64 7.7 3.24 2.4 0.34 4.6 0.12 5.34 0.68 1.72 1.28 -0.18 4.38 0 7.22 0.16 2.12 1.72 3.84 2.14 5.44 0.32 1.28 -0.56 2.16 -2 2.26 -2.36 0.1 -4.16 -1.28 -10.86 -1.98zM186.9 90c0.28 -0.46 -0.88 -1.22 -1.72 -1.4a3.02 3.02 0 0 0 -2.84 0.56c0 0.62 1.76 1 2.68 1.06 0.42 0.08 1.78 0.02 1.88 -0.22zM190 107.44a12.44 12.44 0 0 0 3.2 0 0.34 0.34 0 0 0 0 -0.66c-2 -0.4 -3.42 -0.16 -3.2 -1.7s2.2 -10.16 2.28 -10.42a0.34 0.34 0 0 0 -0.62 -0.28 30.64 30.64 0 0 0 -3.28 10.64 2 2 0 0 0 1.62 2.42zm15.82 -14.04c2.2 0.38 3.02 0.54 3.16 0.3 0.42 -0.74 -2.22 -1.86 -3.72 -2s-4.4 0.2 -4.18 0.94c0.12 0.3 1.44 0.18 4.74 0.76zm-2.58 4.36a1 1 0 0 0 -1.06 0.94v1.88a1.02 1.02 0 0 0 0.9 1.1 1 1 0 0 0 1.1 -0.88v-2a1.02 1.02 0 0 0 -0.94 -1.04zm-19.72 -1.04a1 1 0 0 0 -0.96 1.04c0 0.32 -0.16 1.34 -0.18 2a1 1 0 0 0 0.96 1.04 1 1 0 0 0 1.04 -0.96c0 -0.64 0.2 -1.52 0.18 -2.14a1.08 1.08 0 0 0 -1.04 -0.98zm80.68 223.02h0.1z" stroke-width="1"></path></g></svg>