<svg xmlns="http://www.w3.org/2000/svg" viewBox="0 0 128 128"><g style="transform-origin:99.245px 200.005px"><path d="M129.057 236.372c5.724-3.008 9.215-9.05 9.215-15.516v-15.984a4.867 4.867 0 0 0-4.867-4.867H120.72c-11.708 0-20.71 7.801-21.426 18.121-1.024 14.761 14.381 26.328 29.763 18.246m-29.812 50.445V252.08a3.105 3.105 0 0 1 3.105-3.105h21.405c8.017 0 14.516 6.499 14.516 14.516v37.415c0 .975-.79 1.766-1.766 1.766H115.1c-8.756 0-15.855-7.099-15.855-15.855" style="fill:#232526" transform="translate(-54.745 -187.355)"/></g></svg>