<svg xmlns="http://www.w3.org/2000/svg" viewBox="0 0 400 400" height="400" width="400"><g fill="#ffffff"><path d="M73.3 151.38a2.6 2.6 0 0 0 -0.28 -2.94c-1.58 -1.72 -5.88 -0.6 -5.44 2a3.12 3.12 0 0 0 5.72 0.94zm-14.02 3.3c-2 -4.96 -7.74 -0.26 -6 3.68a3.24 3.24 0 0 0 3.68 1.88 4.28 4.28 0 0 0 2.32 -5.56zm9.32 7.2c-0.88 -1.18 -5.06 -1.84 -3.84 -4 0.14 -0.26 -0.28 -0.5 -0.4 -0.24 -1.26 2.68 2 3.4 2.64 3.76 1.48 0.82 1.56 2.1 1.1 3.6a0.22 0.22 0 0 0 0.42 0.18 3.04 3.04 0 0 0 0.08 -3.3zM60.1 172c1.2 0.88 2.8 -1 2.82 -1.02a12.42 12.42 0 0 1 2 2.36 0.34 0.34 0 0 0 0.58 0c0.52 -0.88 2.36 -0.94 2.14 -2.3 -0.16 -0.84 -1.24 -1.52 -2 -2a5.68 5.68 0 0 0 1.64 -1.6 0.4 0.4 0 0 0 0 -0.46 4.74 4.74 0 0 0 -7.66 1.66 3.16 3.16 0 0 0 0.48 3.36zm0.46 -4a4 4 0 0 1 5.44 -0.92c0.56 0.86 -0.86 1.46 -1.38 1.72a0.38 0.38 0 0 0 0 0.66c0.94 0.42 2.98 1.22 1.66 2.52 -0.36 0.34 -0.7 0.4 -1 0.66a10.54 10.54 0 0 0 -2.32 -2.3s-1 0.7 -1.52 0.92c-2.08 0.74 -1.26 -2.58 -0.88 -3.16zm7.86 14.5c0.22 0 0.28 -0.5 0 -0.54s-2 0.2 -2.3 -1.78c0 -0.36 -0.6 -0.2 -0.56 0.16 0.18 1.22 1.52 2.56 2.86 2.16zM56.76 354a16.64 16.64 0 0 0 -0.78 3.56c0 0.46 0.6 0.66 0.7 0.2a17.7 17.7 0 0 0 0.72 -3.66c0.02 -0.4 -0.52 -0.42 -0.64 -0.1zm-5.14 7.12a19.08 19.08 0 0 0 -3.36 -0.3 0.32 0.32 0 0 0 -0.1 0.64 20.36 20.36 0 0 0 3.46 0.38c0.48 0.04 0.38 -0.66 0 -0.72zm3.16 4.88a34.52 34.52 0 0 0 0.46 4.56 0.26 0.26 0 0 0 0.52 0 33.88 33.88 0 0 0 -0.2 -4.5c-0.02 -0.48 -0.8 -0.48 -0.78 -0.06zm11.36 -2.68a16.3 16.3 0 0 0 -6.74 -0.16c-0.38 0 -0.3 0.72 0 0.66a32.68 32.68 0 0 1 6.6 0.18c0.42 0 0.48 -0.58 0.14 -0.68zm243.04 -312.8c0.18 0.28 0.64 0 0.54 -0.22a11.48 11.48 0 0 0 -3.24 -5.04c-0.32 -0.32 -0.8 0.18 -0.5 0.5a24 24 0 0 1 3.2 4.76zm-11.88 -2.72a44.8 44.8 0 0 0 4 -4.28c0.32 -0.36 -0.2 -0.9 -0.54 -0.54a41.2 41.2 0 0 0 -4 4.4c-0.2 0.34 0.28 0.62 0.54 0.42zm4.82 -11.1c0.26 0.3 0.66 -0.12 0.42 -0.42a21.86 21.86 0 0 0 -3.46 -4c-0.22 -0.16 -0.46 0.16 -0.36 0.36a42.1 42.1 0 0 0 3.4 4.06zm6.8 2.1a31.42 31.42 0 0 1 4.48 -4c0.26 -0.2 0 -0.56 -0.36 -0.44a14.74 14.74 0 0 0 -4.64 3.9c-0.28 0.38 0.2 0.9 0.52 0.54zm11.8 -3.56c2.42 0 4.7 1.74 6.9 2.56 0.28 0.12 0.56 -0.2 0.48 -0.48a47.48 47.48 0 0 1 -0.8 -7.7c0 -0.52 -0.8 -0.64 -0.9 -0.12a14.4 14.4 0 0 1 -5.78 4.88c-0.5 0.08 -0.38 0.88 0.1 0.86zm5.82 -4a27.58 27.58 0 0 0 0.62 5.58 33.54 33.54 0 0 0 -4.72 -2.16 31.76 31.76 0 0 0 4.1 -3.48zM90.86 74.14a133.52 133.52 0 0 1 29.76 -0.92c0.32 0 0.38 -0.5 0 -0.54a84.88 84.88 0 0 0 -30 0.94c-0.24 0.08 -0.1 0.56 0.24 0.52zm2.68 8.36c-15.04 -6.2 -11.46 -5.42 -16.2 -3.82 -1.88 0.64 -7.02 2 -7.68 2.18 0.12 -0.46 2.14 -7.5 1.5 -7.7 -2.14 -0.7 -4.28 -1.32 -6.46 -2 -1.5 -0.42 -1.76 -0.74 -3.02 0 -3.76 2.44 -25.88 17.14 -33.22 22 -0.38 0.26 0 0.88 0.36 0.64 0 0 10.12 -0.96 15.18 -1.6 11.86 0.38 36 -0.42 36 -0.58a14.62 14.62 0 0 1 2.94 -6q5.3 -1.08 10.56 -2.26c0.5 -0.04 0.5 -0.7 0.04 -0.86zm-24.54 -1.46c-6.26 1.44 -12.6 2.32 -18.9 3.5 6.78 -3.28 13.52 -6.58 20.28 -9.88 -0.52 2.1 -1.04 4.24 -1.38 6.38zm8.7 10.24c-3.6 0.54 -22.78 0.18 -28.5 0.34 10.96 -1.52 21.88 -3.48 32.8 -5.62 -0.66 0.68 -2.2 4.96 -4.3 5.28zM30 93.1c6.4 -4.2 25.84 -17 29.18 -19.16a9.56 9.56 0 0 1 3.88 -2c1.32 0 2.84 0.82 7.42 1.88 -7.44 3.74 -22.48 11.12 -22.8 11.18s-0.34 1 0.24 0.88c7.54 -1.44 26.18 -5.14 28 -5.7s4 -1.86 5.84 -1.5 8.52 3.5 10 4.14c-20.4 4.52 -40.96 7.8 -61.76 10.28zm168.52 52.04a18.7 18.7 0 0 0 2.94 -0.6 0.4 0.4 0 0 0 0.26 -0.46c-0.92 -2.72 -1.7 -5.56 -2.86 -8.18 -0.12 -0.24 -0.46 0 -0.4 0.16 0.58 2.66 1.58 5.24 2.42 7.84a14.54 14.54 0 0 0 -2.44 0.62c-0.3 0.12 -0.3 0.64 0.08 0.62zm-6.06 -5.68a5.38 5.38 0 0 0 0 -2 0.34 0.34 0 0 0 -0.68 0 5.38 5.38 0 0 0 0 2 0.32 0.32 0 0 0 0.68 0zm13.64 -0.68c0.12 0.22 0.54 0.2 0.58 0a6.34 6.34 0 0 0 -0.46 -2.26 0.26 0.26 0 0 0 -0.46 0 7.5 7.5 0 0 0 0.34 2.26zm-6.72 11.34a0.28 0.28 0 0 0 0 -0.56 6 6 0 0 1 -3.76 -0.96c-0.24 -0.18 -0.56 0.22 -0.32 0.42a4.34 4.34 0 0 0 4.08 1.1zm78.9 -79.18 -3.1 -3.28 -5.96 6.32 3.76 2.66 5.3 -5.7zm6.22 19.94 4.7 -3.68 -2.88 -3.86 -4.5 3.86 2.68 3.68zm12.66 17.7a59.02 59.02 0 0 1 6.18 -0.96c0 -1.2 0 -2.94 -0.16 -4.12 -0.86 0.22 -6.72 1.36 -6.9 1.38a26.66 26.66 0 0 1 0.88 3.7zm0.96 5.66c0.28 -0.14 4.66 -0.78 6 -0.88a30.3 30.3 0 0 1 -0.48 -3.68s-5.64 1.08 -6 1.2a27.78 27.78 0 0 1 0.48 3.36zm1 6.84a28 28 0 0 1 6.2 -0.28 34.14 34.14 0 0 1 -0.56 -4.58l-6.36 0.58s0.66 3.56 0.72 4.28zm34.6 4.16c0 4 -2.24 7.06 -4.1 10.48s-3.36 10.84 2.48 11.88a0.28 0.28 0 0 0 0.14 -0.52c-9.18 -3.06 0.96 -14 2 -19.16a14 14 0 0 0 -4.16 -13.16 0.32 0.32 0 0 0 -0.44 0.44 14.6 14.6 0 0 1 4.08 10.04zM338 146a7.74 7.74 0 0 1 2 -8.76 0.34 0.34 0 0 0 -0.4 -0.52 7.82 7.82 0 0 0 -2.3 9.58c0.22 0.32 0.7 0.1 0.7 -0.3z" stroke-width="1"></path><path d="M389.86 232.34c-0.74 0 -3.74 -0.62 -3.88 -0.56s-43.52 19.12 -52.64 22.88c-0.16 0 -1.02 3.88 -1.44 5.64 -2.92 -2 -4.6 -1.76 -7.56 0 -3.84 2.32 -7.72 4.64 -11.5 7.08 -1.18 -1.22 -9.8 -6.64 -12.64 -8.42 0.28 -0.64 0.76 -2.38 0.52 -2.56 -22 -16.52 -33.56 -39.1 -44.3 -53.9 28.48 10.2 49.62 -18.2 58.98 -28 0.32 -0.32 -0.14 -0.82 -0.46 -0.6a16.6 16.6 0 0 1 -1 -1.42 12.52 12.52 0 0 0 7.3 -2h0.54a4.66 4.66 0 0 0 6 1.66 2.8 2.8 0 0 0 0.74 1.02c2.54 2 13.88 2.94 16.86 -0.32s1.24 -20.32 1.24 -20.32 -20.6 0.82 -21.08 0.94v2.12a4.32 4.32 0 0 0 -5.18 4 3.04 3.04 0 0 0 -0.94 0c-2.46 0 -7.46 4.84 -8.6 6.3 -0.22 -0.58 -0.46 -1.18 -0.7 -1.76 0.28 -0.28 0 -0.82 -0.44 -0.6 -8 4.86 -32 20 -51.86 12.96 9.42 -6.26 15.44 -18 19.1 -28.12 2.72 -7.62 6.66 -19.8 6 -50.9a6.82 6.82 0 0 0 -1.76 -1.38 3.68 3.68 0 0 0 1.84 -2.8l3 3.74a6 6 0 0 0 4.16 5.48q0.14 15.12 0.36 30.22a0.34 0.34 0 0 0 0.36 0.36 87.36 87.36 0 0 1 14.28 0.66c0.26 0 0.38 -0.24 0.34 -0.44 -0.28 -2 -0.54 -4 -0.88 -6h4.76a0.38 0.38 0 0 0 0.1 -0.76c-0.54 -0.18 -0.96 -3.74 -1.06 -4.28C308 120 305.5 104 305 98c0 -0.24 -0.24 -0.5 -0.5 -0.4a8 8 0 0 1 -2.88 0.54c0.24 -2 0.48 -8.62 -8.2 -8.84 -19.42 -29.78 -18.96 -29.78 -19.42 -29.12 -3.56 4.34 -7.14 8.66 -10.7 13.02a0.38 0.38 0 0 0 0 0.52c3.1 2.78 9.5 8.4 9.58 8.38a13.76 13.76 0 0 0 -1.68 11.12c-0.54 0 -1.34 -0.56 -1.6 0 -2.36 4.36 -12.66 37.2 -15.2 41.2s-20.44 23.54 -27.6 28c-2.66 1.68 -13.78 6.76 -20 -5.12a6.46 6.46 0 0 0 5.2 2.48c5.16 0.18 17.14 -6.9 18 -8.28a8 8 0 0 0 -0.94 -8 6.6 6.6 0 0 1 -1.7 -4.44c0.16 -0.86 2 -2.98 1.58 -3.66 -1.66 -2.34 -5.22 0.28 -6.42 -3.24a10.94 10.94 0 0 1 -0.3 -4c1.82 -2.32 2.84 -5.3 4.78 -7.52a0.4 0.4 0 0 0 0 -0.64 51.22 51.22 0 0 0 -10.24 -4.68c0 -4.68 -0.32 -11.1 -5.56 -13.06 -2.64 -0.98 -5.52 0 -8.24 -0.92a41.62 41.62 0 0 0 -8 -2.56 15.08 15.08 0 0 0 -16 18.7 51.66 51.66 0 0 0 -8.4 4.8 0.4 0.4 0 0 0 -0.14 0.54c1.38 2.18 2.74 4.4 4.18 6.54 0 0 -0.2 0.74 -0.26 1.16 -0.58 3.86 -4 6.52 -6.74 9.28 -4.92 4.94 2.56 5.72 2.52 8.92a10.24 10.24 0 0 1 -0.96 2.68 4.52 4.52 0 0 0 3.3 5.48c4.26 0.52 8.4 3.72 9.46 4.16a6.62 6.62 0 0 0 6.08 -1.7c0.54 4.6 -3.72 8.28 -3.78 8.26a37.5 37.5 0 0 1 -20 -10.42 72 72 0 0 1 -14.56 -18.3c-12.58 -23.8 -6.74 -33.3 -9.54 -54.4 0.14 -0.18 0 -0.56 -0.2 -0.5a66.56 66.56 0 0 1 -10.12 0.56c-1.24 -2.3 1.04 -4.18 0.44 -6.54 -0.22 -0.96 -4 -0.62 -4.38 -2.52a6 6 0 0 0 4.7 0.46c0.18 0 0.16 -0.38 0 -0.36 -1.1 0 -3.72 0 -4.44 -0.96 -0.32 -0.4 -0.44 -1.24 0.36 -1.34a6.92 6.92 0 0 0 4.54 0.24c0.22 0 0.16 -0.36 0 -0.36a9.28 9.28 0 0 1 -4 -0.48c-1.48 -0.9 0.7 -1.64 1.44 -1.66 1.48 0 2.84 0.58 4.28 0.68 0.34 1.14 1.5 2.22 1.28 3.36 0 0.3 0.38 0.44 0.46 0.14 0.28 -0.98 0 -1.3 -0.4 -2.2 -0.24 -0.46 -0.9 -1.32 -0.74 -1.88 1.66 -0.88 2.82 -0.74 3.5 0.44 2.2 3.36 1.26 8.78 1.8 12.18 0 0.44 0.74 0.26 0.68 -0.18 -0.54 -4 1.36 -12 -3.58 -13.88a2.2 2.2 0 0 0 -3.1 1.18 11.34 11.34 0 0 0 -3.4 -0.64 3.6 3.6 0 0 0 -3.16 0.84 1.54 1.54 0 0 0 0 1.8c-0.98 0 -1.2 1.48 -0.6 2.2 0 0 -0.22 0.22 -0.18 0.38 0.6 3.48 4.8 1.02 4.36 4.52 -0.2 1.62 -1.32 3.2 -0.32 4.62h-0.3a0.46 0.46 0 0 0 -0.88 0c-5 17.84 -9.7 36.58 -7.1 55.24 2 14.32 8.3 28.36 20 37.3 -8.8 5.04 -19.58 4 -28.86 0.74 -4.92 -1.68 -21.76 -9.54 -27.18 -14.48a0.4 0.4 0 0 0 -0.66 0.2 54.24 54.24 0 0 0 -5.06 6.78 5.76 5.76 0 0 1 -3.7 -0.86A65.66 65.66 0 0 1 77.62 160c0.5 -0.12 0.94 -0.24 1.28 -0.36a0.28 0.28 0 0 0 0 -0.54c-0.48 0 -3.08 1.12 -3.38 -1.02a3.54 3.54 0 0 1 5.14 0.34c1.84 1.78 1.32 4.4 1.66 6.76a0.24 0.24 0 0 0 0.44 0c0.5 -3.4 -0.8 -9.56 -5.36 -8.96s-2.26 4 -0.16 3.86a57.42 57.42 0 0 0 -2.66 24.54c0.94 6.66 -0.92 16.6 -0.72 18.62 0.12 1.18 -2 -0.78 -2.14 -1.16 -1.32 -2.24 0.94 -9.2 -1.06 -12a20 20 0 0 0 2.22 1.22 0.26 0.26 0 0 0 0.28 -0.46c-1.08 -0.76 -4.36 -3.3 -5.9 -2.92s-1.5 1.7 -2.76 1.04 -0.62 -2 -0.94 -3.08c-0.94 -3.24 -6.7 -7 -9.4 -11.04a37.66 37.66 0 0 1 -5.02 -29.28A51.08 51.08 0 0 1 79.34 142a55.86 55.86 0 0 0 -2 13.88c0 0.34 0.48 0.32 0.52 0 0.26 -3.1 1.38 -11.1 1.66 -12.42 1.8 0.8 3.42 1.58 5.18 0.18 2.38 -2 1.84 -5.8 -3.22 -6.8a56 56 0 0 0 -27.16 0.66c-3.16 1.06 -8.96 4 -6.16 8.2a0.24 0.24 0 0 0 0.22 0A36 36 0 0 0 58 180.18a23.74 23.74 0 0 1 4 4.28c1 1.58 0.66 2.94 1.08 4.6 0.5 2 1.76 1.3 2.98 0.32 3.22 -2.62 4.68 2.4 4.76 4.74a47.56 47.56 0 0 0 0 7.16c0.2 1.04 1.84 4.36 3.42 2.76 0.5 -0.5 0.22 -1.6 0.24 -2.2 0 -2.72 0.72 -5.42 1.04 -8.12 0.9 -7.6 -1.86 -11.68 -0.22 -23.44a4.96 4.96 0 0 0 3.44 0.66l-0.84 1.32c-0.16 0.28 0.36 0.52 0.38 0.54 6.52 11.56 15.36 22.76 27.34 28.98a39.44 39.44 0 0 0 35.02 0.88 39.68 39.68 0 0 1 -10 10.98c-4.62 3.42 -34.16 15.58 -45.18 22.2 -0.18 0 0 1.14 0 1.54 -5.28 -3.74 -6.84 -3.04 -6.84 -3.04a63.56 63.56 0 0 0 2 -13.76c0.14 -2 -1.16 -4.8 -3.54 -4.7 -1.5 0 -1.9 1.62 -2.34 2.84 -1.14 3.14 -5.9 29.74 -8 39.68 -8.24 5.64 -42.32 28.92 -43.5 30.5 -0.5 0.66 0.32 8.76 0.82 12 0 0.18 18.64 24.36 58 20.72a1.38 1.38 0 0 0 0.68 -0.4C86.88 313.56 106 274.98 106 274.9c0.14 -1.62 0.44 -6.34 0 -6.9s-22 -8 -28.66 -10.36c0 -3.36 0.16 -6.72 0.28 -10 0 0 6.96 0.98 10.94 -2.2l0.58 1.38c0 0.22 16.42 0.46 24.3 0a90.36 90.36 0 0 0 20.4 -3.34 53.34 53.34 0 0 0 21.78 -12.32c-0.48 8 3.66 20 5.08 23.18 -14.14 -0.44 -22 -0.82 -26.6 0.12a26.98 26.98 0 0 0 -17.26 11.14c-5.14 7.78 -5.12 19.72 1.78 26.52 6.46 6.38 15.12 9.64 23.8 11.68 5.22 1.2 10.44 2.3 15.7 3.28 9.16 -7.7 14.98 -16.32 35.06 -30a98.56 98.56 0 0 0 -56.54 -12.98c-0.42 0 -0.42 -0.64 0 -0.68 36.28 -2.92 56.96 13.32 56.98 13.36s20.4 -17.56 45.32 -11.6a0.22 0.22 0 0 1 -0.12 0.42c-16.72 -4 -32.54 3.06 -46 12.48 -22 15.38 -27.12 24.38 -36 30.84 -0.16 0.12 -7.22 2.8 -7.22 2.8a22 22 0 0 0 -7.66 2 17.42 17.42 0 0 0 -8.64 6.64c-0.58 0.74 -4 7.16 4.6 6.5a19.18 19.18 0 0 0 11.48 -4.5c0.56 -0.52 2.38 -3.02 3.04 -3.86a62.22 62.22 0 0 1 6.62 -2.12 24.5 24.5 0 0 1 2 5.5c31.46 -5.68 62.16 -10.18 87.3 -20.54 10.32 -4.26 23.24 -9.38 27.06 -20.54 4 -11.72 -3.6 -24.12 -13.22 -26.34 -2.74 -0.62 -21.18 -0.54 -27.62 -0.14a80.64 80.64 0 0 0 2.74 -31.76c11.68 20.32 31.76 37.64 54.7 43.4a10 10 0 0 0 2.64 -0.84c1.16 1.46 3.16 1.34 3.88 4.72a40.1 40.1 0 0 1 0 6.3c-6.96 4.58 -13.66 9.54 -20.72 14a14.66 14.66 0 0 0 1.22 4.22s36.74 20 44.16 23.76c0.44 0.24 0.84 -0.44 0.4 -0.66 -7.4 -3.84 -36.72 -19.66 -44.16 -23.38a22.3 22.3 0 0 0 -0.82 -2.94c14.54 7.38 27.72 17.2 42.68 23.82a0.44 0.44 0 0 0 0.62 -0.42s6.98 -39.46 11.86 -58.92a4.68 4.68 0 0 0 3.06 1.2c-1.84 6.9 -14.88 63.14 -12.68 61.52 8.34 -6 41.14 -31.3 49.8 -36.94 0.3 -0.18 12.8 -39.82 15.68 -47.6 0.12 -0.34 0.62 -1.48 0.24 -1.46zM67.22 136.2a109.64 109.64 0 0 1 15.08 1.62c1.78 0.58 5.14 3.36 1.4 5.42 -1.28 0.7 -4 -0.66 -4 -0.66s1.36 -4.2 3.42 -2.84c0.22 0.14 0.56 -0.2 0.3 -0.4 -1.62 -1.26 -2.82 -0.28 -3.7 1.74 -18.98 -3.04 -31.18 4 -31.22 4.18 -2.96 -7.72 14.28 -9.02 18.72 -9.06zm84.6 181.6c-2 -0.72 -2.64 -4 -2.46 -5.58a24.44 24.44 0 0 0 6.4 -2.54c1 2 2.1 4 3.06 6a22 22 0 0 0 -7 2.12zm167.84 -151.62c1.2 -0.8 5.88 -1.34 5.32 0a2.56 2.56 0 0 1 -1.38 1.16 15.26 15.26 0 0 1 -3.32 0.28c-0.68 -0.06 -0.88 -0.52 -0.62 -1.44zm0.66 -2.92c1.58 -1.06 3.84 -2 3.54 0s-8.84 3.52 -3.54 0zm0 6.62c-0.66 0 -2 -0.5 -0.18 -1.62a24 24 0 0 0 4.32 -0.46c1.54 2.2 -3.88 2.2 -4.1 2.08zm5.18 -13.88c0.12 4.56 0.64 12.34 2 15.68a4.96 4.96 0 0 1 -5.34 -1.4c4.84 0 3.24 -3.06 2.76 -3.14 0.76 -0.44 1.74 -2.34 -1.08 -2.56 0.98 -0.5 2 -3.68 -1.72 -3.06a1.82 1.82 0 0 0 -1.34 -1.8 4.2 4.2 0 0 1 4.72 -3.72zm-7.86 4.82a3.38 3.38 0 0 1 2.44 -0.56c0.86 0.1 1.24 0.66 1.16 1.66a9.58 9.58 0 0 0 -2.9 2.32c-1.22 1.5 0.52 1.74 0.72 1.76a1.46 1.46 0 0 0 0.46 2c-2 1.32 -0.24 2.3 0.2 2.4a14.92 14.92 0 0 1 -6 1.64 35.3 35.3 0 0 1 -2.68 -5.78 76.82 76.82 0 0 1 6.6 -5.44zm-27.54 -59.84v0.76a5.72 5.72 0 0 1 -3.6 -4l0.24 0.32a0.36 0.36 0 0 0 0.5 0c0.46 -0.52 0.94 -1 1.42 -1.46a4.12 4.12 0 0 0 2 4c-0.2 0 -0.56 0.02 -0.56 0.38zm3.36 -8.58a4 4 0 0 1 4 3.44 7.06 7.06 0 0 1 -0.38 2.26 6.74 6.74 0 0 1 -4 0.82c-0.26 0 -0.4 0.26 -0.36 0.48s0 0.44 0 0.66l-1.02 0.22a3.74 3.74 0 0 1 -2.64 -4.14 23.86 23.86 0 0 1 4.34 -3.06 0.38 0.38 0 0 0 0.06 -0.68zm11.24 40.58c-3.5 -0.46 -12.82 -0.28 -13.52 -1.26 -0.34 -0.48 -0.48 -30.3 -0.4 -30.44 0.4 -0.56 1.24 -0.38 2.14 -0.62 1.4 8.92 3.18 17.8 3.9 26.82 0 0.32 0.52 0.54 0.68 0.18s6.34 -0.42 6.42 -0.42c0.22 1.92 0.52 3.82 0.78 5.74zm-0.44 -34.46c0.54 6.2 4 27.16 4.28 27.84a96.24 96.24 0 0 0 -11.04 0.46c-0.46 -5.52 -3.68 -26.68 -3.8 -26.8s2.46 -0.74 3.16 -1.12c-0.42 2 0.7 3.68 2.54 2.76a4 4 0 0 0 2 -2.68 8.84 8.84 0 0 0 2.86 -0.46zm-3.76 -3.68a6.2 6.2 0 0 1 -0.4 5.06c-0.28 0.42 -0.96 1.24 -1.5 1.18 -1.46 0 -0.9 -2 -0.74 -2.86 0.42 -2 0.72 -3.66 -1.02 -5.26a5.04 5.04 0 0 0 -2.78 -1.28c-0.42 0 -4.3 0.46 -3.3 -0.36 3.34 -2.74 8.48 -0.4 9.74 3.52zm-36 -21c-0.36 -1.26 8.88 -12.32 9.4 -12.36 0.98 0 13.08 19.46 18.6 28 -2.54 0.66 -3.28 2.6 -1.9 3.2a8.12 8.12 0 0 0 2.58 -0.24c-1.46 0.78 -5.54 4.44 -5.84 4.52 -0.9 0.18 -7.4 -8.82 -10.2 -12a6 6 0 0 0 1.38 -2.58l0.64 0.66 4.56 -3.66 -3.1 -4 -4.62 4.12a5.18 5.18 0 0 0 -2.9 2.26 115.68 115.68 0 0 1 -8.64 -7.92zm9.24 8.36c0.82 -1.72 2.16 -1.82 4 -0.28a6.24 6.24 0 0 1 -1.66 3.02c-0.34 0.38 0.2 0.94 0.54 0.56l0.28 -0.32c1.76 2.52 3.64 4.96 5.54 7.36a3.46 3.46 0 0 1 -2 3.18 43.16 43.16 0 0 0 -8.48 -2.4 14 14 0 0 1 1.74 -11.12zm-4 11.5a37.38 37.38 0 0 1 12.54 3.78v4.56a18.82 18.82 0 0 0 -13.56 -5.16c0.4 -1 1.06 -3.14 1.06 -3.18zm-73.68 6a53.6 53.6 0 0 1 6 2.18 18 18 0 0 0 5.86 0.66c6.88 0.14 7.7 7.08 7.7 12.52a52 52 0 0 0 -36.4 2 14.36 14.36 0 0 1 16.88 -17.44zM174.68 128.44l-2 -3.3c-0.84 -1.32 -1.88 -2.16 -0.56 -3.32 1.78 -1.62 27.9 -16.28 53.88 -1.44a52 52 0 0 0 -4 6.42c-0.42 -1 -22.92 -13.64 -47.32 1.64zm10 39.72c4 -2.4 5.06 -7.88 3.74 -12 0 -0.28 -7.28 -3.84 -6.82 -9.58a2.42 2.42 0 0 1 -3.4 -0.58 2.88 2.88 0 0 1 0.54 -3.54 3.52 3.52 0 0 1 3.64 -0.6 43.82 43.82 0 0 0 -1.36 -7.86c0.18 0.7 12.64 0.7 18.62 -10.88 -0.58 1.12 6.1 8.34 14 7.84 -0.5 0 -0.16 6.68 -0.16 7.4 4.62 -1.86 4.82 6.68 0.14 5.64 1.4 0.32 0.52 11.22 -7.18 12 0 0.1 -0.18 0.32 -0.16 0.44 0.4 5.76 6.72 8.28 6.74 8.42a13.5 13.5 0 0 1 -12.6 15.22c-7.8 0.58 -13.8 -4.74 -16.54 -11.64 0 -0.08 0.68 -0.24 0.76 -0.28zm-1.24 0.4a16.86 16.86 0 0 0 18 12.22 14.26 14.26 0 0 0 12.5 -16 26.38 26.38 0 0 0 3.78 0.78A20.54 20.54 0 0 1 214.2 178a17.64 17.64 0 0 1 -13.42 6.48 19.74 19.74 0 0 1 -20 -16.56 12.86 12.86 0 0 1 2.62 0.64zm-54.62 -83.6a26.76 26.76 0 0 0 10.84 -0.38c0.12 1 0.2 2 0.28 3.02a34.66 34.66 0 0 1 -12.18 1.2c0.36 -1.28 0.72 -2.56 1.06 -3.84zm-48 90.46c-0.66 -1 -2.12 -3.14 -2.2 -3.16 0.9 -1.44 4.38 -5.72 5.76 -8.26 0.74 0.64 1.5 1.26 2.28 1.84a35.62 35.62 0 0 0 -5.8 9.58zm-5.76 44.24c1.3 -0.72 3.86 -0.38 4.44 1.14 0 0.2 -0.2 0.4 -0.36 0.28a4.64 4.64 0 0 0 -4 -0.96c-0.16 0.02 -0.24 -0.34 -0.04 -0.46zm-7.24 38.66a6.8 6.8 0 0 1 8.2 0c0.4 0.28 0 0.94 -0.38 0.66a7.08 7.08 0 0 0 -7.56 -0.26c-0.08 0.02 -0.4 -0.24 -0.22 -0.4zm29.54 12.78c1.36 0.96 0.92 1.52 0.22 2.94s-20.92 35.48 -22.48 35.58c-2.58 0.18 -19.3 -3.32 -24.5 -5.24a46 46 0 0 1 -13.84 -7.7c-1.44 -1.22 -5.02 -4.42 -3.7 -6.46 0.6 -0.92 23.14 -19.1 36.78 -26.4a24 24 0 0 1 1.76 2.54 16.86 16.86 0 0 0 4 -3.82c4.88 1.46 17.86 5.78 21.8 8.56zm-72.72 29.74s-0.68 -5.9 -0.88 -8.82c14 23.62 51.62 25.36 57.72 25.26 0 0.56 0.14 2.9 0.22 3.52 -21.02 1.6 -42.08 -4.8 -57.06 -19.96zm80.92 -26c-4.32 7.36 -19.4 38.2 -23.28 45.82a29.8 29.8 0 0 0 -0.28 -3.8c1.56 -4 23.3 -45.12 23.66 -45.76 -0.04 1.28 -0.02 2.54 -0.1 3.78zm-1.12 -6.68c1.38 0.82 0.8 1.8 0.1 3.08 -2 3.58 -20.42 39 -22 42.46 -0.86 1.78 -0.94 2.44 -3.14 2.68 -4.9 0.54 -21.24 -3.02 -28.16 -5.12a50.14 50.14 0 0 1 -19.6 -11.26c-2.66 -2.46 -8.36 -9.88 -7.8 -10.8 0.28 -0.48 32.36 -22.66 42.7 -30 0 0 2 2.98 2.98 4A226.62 226.62 0 0 0 32 290.4a0.28 0.28 0 0 0 -0.1 0.3c1.78 6.72 10.16 10.86 16 13.38 8.28 3.58 27.82 6.66 28.6 6.12s18.78 -29.38 22.98 -38.4a0.36 0.36 0 0 0 -0.12 -0.48A114.36 114.36 0 0 0 76.12 262c1.36 -1.52 1.2 -0.96 1.22 -3.36 6.32 2.18 26.4 9.16 27.1 9.56zm-16 -23.28c-3.78 2.94 -10.74 2.14 -10.78 2.16 0 -2.4 0.18 -4.82 0.22 -7.22a6.3 6.3 0 0 0 6 2c0.26 0 0.22 -0.56 0 -0.52a6.56 6.56 0 0 1 -6.2 -3.02c-0.56 -0.62 -3.22 0 -3.74 -0.14 -1.12 -0.44 1.48 -2.3 2.24 -2.62 3.4 -1.42 6.82 0.82 9.64 2.52 0.76 2.34 1.68 4.62 2.6 6.88zm1.3 1.44c-1.34 -3.26 -2.52 -6.6 -3.82 -10l1.8 -0.92a59.54 59.54 0 0 0 4 10.82zm147.5 -25s-0.58 -0.5 -0.56 -0.2c1.08 21.26 -1.76 27.36 -2.88 32.92 -3.54 0.22 -58.24 0.58 -72 0.16a78 78 0 0 1 -5.6 -23.76 34.1 34.1 0 0 0 6.3 -8.78c0.2 -0.42 -0.38 -0.78 -0.62 -0.38 -16 27.6 -56.3 25.08 -69.56 25.04 -1.54 -3.6 -2.68 -7.4 -4.24 -11 10.22 -5.22 20.32 -10.32 30.96 -14.72 9.48 -3.9 17.74 -9.46 22.8 -18.62 0.12 0 0.42 -1.3 -0.12 -1.02a39.16 39.16 0 0 1 -37.06 -0.96c-10.2 -5.76 -17.3 -14.84 -23.64 -24.4a109.28 109.28 0 0 1 6.24 -9.42 120.96 120.96 0 0 0 25.4 12.56c9.16 3.1 20.52 4.28 29.02 -1.26a0.42 0.42 0 0 0 -0.28 -0.78c-11.86 -9.44 -18.22 -24 -19.86 -38.94 -1.84 -16.46 1.8 -32.88 6.14 -48.72 4.92 1.02 12.3 -1 12.3 -1 1.38 19.64 -2.88 30.48 9.5 52.3 6 10.7 18.86 24.38 30.84 27.3v0.16a20 20 0 0 0 20.78 17.28 18.52 18.52 0 0 0 13.18 -6.18 20.82 20.82 0 0 0 4 -13.38c5.62 0.12 10 -3.74 14.36 -7 8.54 -6.22 21.64 -22.52 23.36 -25.8s9.76 -27.04 12.58 -35.44a22.3 22.3 0 0 1 13.7 5.64c0 14.68 -0.82 29.62 -5.62 43.56 -8.52 24.7 -22 30.9 -22.88 31.4 -0.36 0.2 0 0.72 0.32 0.54a28.44 28.44 0 0 0 3.06 -1.7c16.38 6.86 34.42 -1.7 48.84 -10.26 0 0 1.82 8 5.42 10.94 0.18 0.14 0.48 0 0.32 -0.26a50.1 50.1 0 0 1 -5.5 -10.84c1.16 -0.68 2.28 -1.38 3.38 -2a21.62 21.62 0 0 0 4.82 10.14 100.6 100.6 0 0 1 -25.02 21.88c-16.96 10.4 -30.1 6.3 -36.94 4.68a0.22 0.22 0 0 0 -0.12 0.44c1.12 0.34 2.24 0.66 3.38 0.96 16.3 29.6 33.16 45.62 40.88 52 -0.84 3.7 -3.84 8.64 -7.86 9.5 -21.92 -6.86 -39.4 -23.28 -51.54 -42.54zm55.04 43.5 -2.28 -0.64a15.06 15.06 0 0 0 7.34 -9.36c0.96 0.78 2 1.56 2.94 2.3 -2.64 5.82 -6.02 7.18 -8.02 7.74zm5.84 1.76c-0.8 -0.96 -2.12 -1.22 -3.06 -2a12.86 12.86 0 0 0 4.84 -4.98c3 1.74 12.44 7.14 13.24 9.08 0.62 1.52 -3.22 0.26 -4 0 0 0 -0.64 0.5 -0.36 0.68 1.4 0.92 4.46 3.52 2.78 3.6a6.74 6.74 0 0 1 -2.36 -0.8c-0.82 -0.36 -2.48 -1.22 -2.52 -1.2a0.3 0.3 0 0 0 -0.34 0.48c0.82 0.88 1.66 1.72 2.42 2.62 1.18 1.4 0.94 2.12 -0.7 1.26 -3.44 -1.82 -5.56 -3.62 -5.82 -2.9a5.6 5.6 0 0 1 -1.88 2.98c-0.92 0.52 -0.8 0.56 -0.96 -0.54s0.12 -2.92 0 -4.36a8.32 8.32 0 0 0 -1.3 -3.88zm24.64 38.58 -23.74 -12.54c5.74 -4.14 29.36 -21.22 30.64 -22.82 -2.72 11.74 -5.16 23.54 -6.92 35.4zm7.2 -36.68c-2 2.7 -26.4 20 -31.76 23.88a0.36 0.36 0 0 0 0 0.6l24.42 13.04c-0.38 2.64 -0.74 5.28 -1.06 8 -14.98 -6.64 -28.22 -16.46 -42.84 -23.78a233.64 233.64 0 0 0 20 -13.66c1.22 1.32 3.46 -2.48 4 -3.64 11.66 8 6.64 0.86 5.24 -0.6 9 4 3.32 -1.78 2 -2.82 6 2 3.58 -1.34 3.44 -1.52 2.72 -1.58 10.58 -6.46 11.86 -7.2a5.86 5.86 0 0 1 6.6 0.34c-0.74 2.38 -1.34 4.88 -1.86 7.4zm43.18 12.16c-8.4 6 -41.3 30 -48.72 36.58 1.72 -9.52 10.3 -50 13.2 -60.7 0 0 43 -18.42 51.4 -22.72 -3.6 7.12 -14.04 38.58 -15.9 46.88zm-36 -24.62s-2.62 -0.84 -3.04 -1.1c8.72 -2.98 43.56 -18.16 52.2 -22.52a6.38 6.38 0 0 0 2.82 0.6c-8.46 4.32 -43.3 19.28 -52.06 23z" stroke-width="1"></path><path d="M356.96 265.38c-1.48 0.56 -2 2.74 -2 4.16a2.28 2.28 0 0 0 1.12 2.32c1.62 0.68 4.42 -1.78 3.82 -4.62 -0.34 -1.62 -1.34 -2.48 -2.94 -1.86zm2.28 2a3.82 3.82 0 0 1 -1.06 3.1c-1.26 1.42 -2.72 0.94 -2.5 -1.28a5.68 5.68 0 0 1 0.82 -2.62c1 -1.46 2.66 -0.18 2.74 0.76zm-110.9 47.12a19.64 19.64 0 0 0 -7.62 -1.9c-3 -0.38 -8.88 -5.42 -9.86 -4.88 -4.8 2.6 -24.72 6.84 -29.48 7.76 6.58 1.8 29.16 4.3 29.16 4.3s0.64 -1.04 1.56 -2.42c2 0.54 3.84 1.28 5.78 2 0.64 0.84 2.46 3.36 3.02 3.86a19.2 19.2 0 0 0 11.5 4.52c8.6 0.64 5.16 -5.76 4.6 -6.52a17.8 17.8 0 0 0 -8.66 -6.72zm-9.86 4.36a20.22 20.22 0 0 0 -6 -2 34.42 34.42 0 0 1 4.26 -5.14 17.02 17.02 0 0 0 4.22 1.56c0.16 1.62 -0.58 4.88 -2.48 5.58zM20 199.26A39.72 39.72 0 0 1 11.42 192c-0.24 -0.28 -0.66 0 -0.68 0.28 -0.26 3.5 -0.52 7 -0.74 10.5a0.38 0.38 0 0 0 0.48 0.36q4.82 -1.54 9.68 -2.92c0.24 -0.22 0.02 -0.86 -0.16 -0.96zm-9.2 2.92c0.24 -3 0.46 -6 0.68 -9.02a39.1 39.1 0 0 0 7.88 6.64c-2.88 0.72 -5.72 1.52 -8.56 2.38zm331.34 138.68a4 4 0 1 0 4 4 4 4 0 0 0 -4 -4zm0 6.58a2.68 2.68 0 1 1 2.68 -2.66 2.68 2.68 0 0 1 -2.72 2.66z" stroke-width="1"></path></g></svg>